<svg width="425" height="342" viewBox="0 0 425 342" fill="none" xmlns="http://www.w3.org/2000/svg">
<path d="M89.1172 271.572C88.8695 271.572 88.632 271.503 88.4569 271.379C88.2818 271.256 88.1835 271.088 88.1835 270.914V265.773C88.1835 262.934 86.5829 260.211 83.7339 258.204C80.8849 256.196 77.0209 255.068 72.9918 255.068C68.9627 255.068 65.0986 256.196 62.2496 258.204C59.4006 260.211 57.8001 262.934 57.8001 265.773V270.914C57.8001 271.089 57.7016 271.256 57.5264 271.379C57.3512 271.503 57.1135 271.572 56.8657 271.572C56.618 271.572 56.3803 271.503 56.2051 271.379C56.0299 271.256 55.9314 271.089 55.9314 270.914V265.773C55.9186 264.189 56.3504 262.618 57.202 261.152C58.0536 259.685 59.3082 258.352 60.8937 257.228C62.4791 256.105 64.3641 255.213 66.4403 254.605C68.5165 253.996 70.7429 253.683 72.9915 253.683C75.2401 253.683 77.4665 253.996 79.5427 254.605C81.6189 255.213 83.5039 256.105 85.0893 257.228C86.6748 258.352 87.9294 259.685 88.781 261.152C89.6326 262.618 90.0644 264.189 90.0516 265.773V270.914C90.0516 271.089 89.9531 271.256 89.7779 271.379C89.6027 271.503 89.365 271.572 89.1172 271.572V271.572Z" fill="#494945"/>
<path d="M111.245 266.471H91.5872V341.231H111.245V266.471Z" fill="#0CBC8B"/>
<path opacity="0.21" d="M111.245 266.471H91.5872V341.231H111.245V266.471Z" fill="#0A0A0A"/>
<path d="M91.5872 266.471H15.0752V341.231H91.5872V266.471Z" fill="#0CBC8B"/>
<path d="M69.4578 271.572C69.2101 271.572 68.9726 271.503 68.7975 271.379C68.6224 271.256 68.5241 271.088 68.5241 270.914V265.773C68.5362 264.362 68.1522 262.963 67.3941 261.657C66.6361 260.35 65.519 259.163 64.1071 258.162C62.6951 257.161 61.0163 256.366 59.1671 255.824C57.3179 255.282 55.3349 255.003 53.3321 255.003C51.3293 255.003 49.3462 255.282 47.497 255.824C45.6479 256.366 43.969 257.161 42.5571 258.162C41.1452 259.163 40.0281 260.35 39.27 261.657C38.512 262.963 38.128 264.362 38.1401 265.773V270.914C38.1431 271.002 38.1212 271.089 38.0756 271.171C38.0301 271.252 37.9617 271.327 37.8747 271.39C37.7877 271.453 37.6837 271.503 37.5689 271.537C37.454 271.571 37.3307 271.588 37.206 271.588C37.0814 271.588 36.9581 271.571 36.8432 271.537C36.7284 271.503 36.6244 271.453 36.5374 271.39C36.4503 271.327 36.382 271.252 36.3365 271.171C36.2909 271.089 36.269 271.002 36.272 270.914V265.773C36.2592 264.189 36.691 262.618 37.5426 261.152C38.3942 259.685 39.6488 258.352 41.2342 257.228C42.8197 256.105 44.7047 255.213 46.7809 254.605C48.8571 253.996 51.0835 253.683 53.3321 253.683C55.5807 253.683 57.8071 253.996 59.8833 254.605C61.9595 255.213 63.8445 256.105 65.4299 257.228C67.0154 258.352 68.27 259.685 69.1216 261.152C69.9732 262.618 70.405 264.189 70.3921 265.773V270.914C70.3921 271.089 70.2937 271.256 70.1185 271.379C69.9433 271.503 69.7056 271.572 69.4578 271.572Z" fill="#494945"/>
<path opacity="0.11" d="M91.5872 266.471L101.416 273.93L111.245 266.471H91.5872Z" fill="#0A0A0A"/>
<path opacity="0.11" d="M91.5872 341.231L101.416 333.772L111.245 341.231H91.5872Z" fill="#0A0A0A"/>
<path d="M306.557 0H143.748C130.28 0 119.361 7.69344 119.361 17.1838V286.867C119.361 296.357 130.28 304.05 143.748 304.05H306.557C320.025 304.05 330.943 296.357 330.943 286.867V17.1838C330.943 7.69344 320.025 0 306.557 0Z" fill="#292A2E"/>
<path d="M306.48 5.36572H143.825C134.576 5.36572 127.079 10.6486 127.079 17.1653V286.484C127.079 293.001 134.576 298.284 143.825 298.284H306.48C315.728 298.284 323.226 293.001 323.226 286.484V17.1653C323.226 10.6486 315.728 5.36572 306.48 5.36572Z" fill="white"/>
<path d="M184.98 3.14746H265.322V9.00539C265.322 10.6852 264.375 12.2962 262.69 13.4842C261.004 14.6722 258.718 15.3397 256.334 15.3402H193.97C191.586 15.3402 189.299 14.6727 187.613 13.4847C185.927 12.2967 184.98 10.6855 184.98 9.00539V3.14746Z" fill="#292A2E"/>
<g opacity="0.15">
<path opacity="0.15" d="M305.616 95.8002H144.688C142.464 95.7984 140.331 95.175 138.758 94.0668C137.186 92.9585 136.301 91.4559 136.298 89.8886V30.0697C136.301 28.5024 137.186 26.9998 138.758 25.8916C140.331 24.7833 142.464 24.16 144.688 24.1582H305.616C307.84 24.16 309.972 24.7833 311.545 25.8916C313.118 26.9998 314.002 28.5024 314.005 30.0697V89.8886C314.002 91.4559 313.118 92.9585 311.545 94.0668C309.972 95.175 307.84 95.7984 305.616 95.8002V95.8002ZM144.688 24.9406C142.758 24.9423 140.908 25.4833 139.544 26.4449C138.179 27.4064 137.412 28.71 137.41 30.0697V89.8886C137.412 91.2484 138.179 92.552 139.544 93.5136C140.908 94.4752 142.758 95.0161 144.688 95.0178H305.616C307.545 95.0163 309.396 94.4755 310.76 93.5139C312.125 92.5523 312.893 91.2485 312.895 89.8886V30.0697C312.892 28.7099 312.125 27.4061 310.76 26.4446C309.396 25.483 307.545 24.9421 305.616 24.9406H144.688Z" fill="#292A2E"/>
</g>
<g opacity="0.43">
<path opacity="0.43" d="M228.941 40.9582C231.82 40.9582 234.154 39.3135 234.154 37.2847C234.154 35.2558 231.82 33.6111 228.941 33.6111C226.062 33.6111 223.728 35.2558 223.728 37.2847C223.728 39.3135 226.062 40.9582 228.941 40.9582Z" fill="#0CBC8B"/>
<path opacity="0.43" d="M245.595 40.9582C248.475 40.9582 250.809 39.3135 250.809 37.2847C250.809 35.2558 248.475 33.6111 245.595 33.6111C242.716 33.6111 240.382 35.2558 240.382 37.2847C240.382 39.3135 242.716 40.9582 245.595 40.9582Z" fill="#0CBC8B"/>
<path opacity="0.43" d="M262.25 40.9582C265.129 40.9582 267.463 39.3135 267.463 37.2847C267.463 35.2558 265.129 33.6111 262.25 33.6111C259.371 33.6111 257.037 35.2558 257.037 37.2847C257.037 39.3135 259.371 40.9582 262.25 40.9582Z" fill="#0CBC8B"/>
<path opacity="0.43" d="M278.905 40.9582C281.784 40.9582 284.118 39.3135 284.118 37.2847C284.118 35.2558 281.784 33.6111 278.905 33.6111C276.025 33.6111 273.691 35.2558 273.691 37.2847C273.691 39.3135 276.025 40.9582 278.905 40.9582Z" fill="#0CBC8B"/>
<path opacity="0.43" d="M295.559 40.9582C298.438 40.9582 300.773 39.3135 300.773 37.2847C300.773 35.2558 298.438 33.6111 295.559 33.6111C292.68 33.6111 290.346 35.2558 290.346 37.2847C290.346 39.3135 292.68 40.9582 295.559 40.9582Z" fill="#0CBC8B"/>
</g>
<g opacity="0.15">
<path opacity="0.15" d="M300.772 48.6497H225.152V49.432H300.772V48.6497Z" fill="#292A2E"/>
</g>
<g opacity="0.15">
<path opacity="0.15" d="M300.772 56.4731H225.152V57.2555H300.772V56.4731Z" fill="#292A2E"/>
</g>
<g opacity="0.15">
<path opacity="0.15" d="M265.324 64.2969H225.152V65.0793H265.324V64.2969Z" fill="#292A2E"/>
</g>
<g opacity="0.15">
<path opacity="0.15" d="M301.328 85.6378H275.501V79.842H301.328V85.6378ZM276.611 84.8554H300.217V80.6244H276.611V84.8554Z" fill="#292A2E"/>
</g>
<path d="M265.157 80.2327H240.44V85.246H265.157V80.2327Z" fill="#0CBC8B"/>
<path d="M205.379 43.9687C204.179 41.8063 200.193 40.4778 192.86 38.8536C192.628 38.8024 191.907 38.678 191.178 38.5555C190.956 38.5182 190.725 38.5161 190.501 38.5493C190.278 38.5824 190.068 38.6501 189.886 38.7474C189.704 38.8446 189.556 38.9691 189.45 39.1118C189.345 39.2545 189.286 39.4119 189.277 39.5726C189.277 39.5726 188.389 42.2976 181.864 42.2976C174.147 42.2976 173.093 39.5726 173.093 39.5726C173.084 39.4119 173.025 39.2545 172.92 39.1118C172.814 38.9691 172.666 38.8446 172.484 38.7474C172.302 38.6501 172.092 38.5824 171.869 38.5493C171.645 38.5161 171.414 38.5182 171.192 38.5555C170.463 38.678 169.742 38.8024 169.51 38.8536C162.177 40.4778 158.191 41.8063 156.991 43.9687C152.78 51.5576 146.364 75.4259 146.364 75.4259L155.918 77.1917L163.951 57.1632C165.097 60.1671 165.462 69.3422 165.462 69.3422H174.614H187.755H196.662C196.662 69.3422 197.272 60.1671 198.419 57.1632L206.452 77.1917L216.005 75.4259C216.005 75.4259 209.59 51.5576 205.379 43.9687Z" fill="#0CBC8B"/>
<path opacity="0.48" d="M205.379 43.9687C204.179 41.8063 200.193 40.4778 192.86 38.8536C192.628 38.8024 191.907 38.678 191.178 38.5555C190.956 38.5182 190.725 38.5161 190.501 38.5493C190.278 38.5824 190.068 38.6501 189.886 38.7474C189.704 38.8446 189.556 38.9691 189.45 39.1118C189.345 39.2545 189.286 39.4119 189.277 39.5726C189.277 39.5726 188.389 42.2976 181.864 42.2976C174.147 42.2976 173.093 39.5726 173.093 39.5726C173.084 39.4119 173.025 39.2545 172.92 39.1118C172.814 38.9691 172.666 38.8446 172.484 38.7474C172.302 38.6501 172.092 38.5824 171.869 38.5493C171.645 38.5161 171.414 38.5182 171.192 38.5555C170.463 38.678 169.742 38.8024 169.51 38.8536C162.177 40.4778 158.191 41.8063 156.991 43.9687C152.78 51.5576 146.364 75.4259 146.364 75.4259L155.918 77.1917L163.951 57.1632C165.097 60.1671 165.462 69.3422 165.462 69.3422H174.614H187.755H196.662C196.662 69.3422 197.272 60.1671 198.419 57.1632L206.452 77.1917L216.005 75.4259C216.005 75.4259 209.59 51.5576 205.379 43.9687Z" fill="white"/>
<g opacity="0.15">
<path opacity="0.15" d="M305.616 180.034H144.688C142.464 180.032 140.331 179.409 138.759 178.3C137.186 177.192 136.301 175.69 136.298 174.123V114.303C136.301 112.736 137.186 111.233 138.759 110.125C140.331 109.017 142.464 108.394 144.688 108.392H305.616C307.84 108.394 309.972 109.017 311.545 110.125C313.117 111.233 314.002 112.736 314.005 114.303V174.123C314.002 175.69 313.118 177.192 311.545 178.3C309.972 179.409 307.84 180.032 305.616 180.034ZM144.688 109.174C142.758 109.176 140.909 109.717 139.544 110.678C138.18 111.64 137.412 112.943 137.41 114.303V174.123C137.412 175.482 138.179 176.786 139.544 177.747C140.908 178.709 142.758 179.25 144.688 179.251H305.616C307.545 179.25 309.396 178.709 310.76 177.748C312.125 176.786 312.892 175.482 312.895 174.123V114.303C312.892 112.943 312.125 111.639 310.76 110.678C309.396 109.716 307.545 109.175 305.616 109.174L144.688 109.174Z" fill="#292A2E"/>
</g>
<g opacity="0.43">
<path opacity="0.43" d="M228.941 125.192C231.82 125.192 234.154 123.547 234.154 121.519C234.154 119.49 231.82 117.845 228.941 117.845C226.062 117.845 223.728 119.49 223.728 121.519C223.728 123.547 226.062 125.192 228.941 125.192Z" fill="#0CBC8B"/>
<path opacity="0.43" d="M245.595 125.192C248.475 125.192 250.809 123.547 250.809 121.519C250.809 119.49 248.475 117.845 245.595 117.845C242.716 117.845 240.382 119.49 240.382 121.519C240.382 123.547 242.716 125.192 245.595 125.192Z" fill="#0CBC8B"/>
<path opacity="0.43" d="M262.25 125.192C265.129 125.192 267.463 123.547 267.463 121.519C267.463 119.49 265.129 117.845 262.25 117.845C259.371 117.845 257.037 119.49 257.037 121.519C257.037 123.547 259.371 125.192 262.25 125.192Z" fill="#0CBC8B"/>
<path opacity="0.43" d="M278.905 125.192C281.784 125.192 284.118 123.547 284.118 121.519C284.118 119.49 281.784 117.845 278.905 117.845C276.025 117.845 273.691 119.49 273.691 121.519C273.691 123.547 276.025 125.192 278.905 125.192Z" fill="#0CBC8B"/>
<path opacity="0.43" d="M295.559 125.192C298.438 125.192 300.773 123.547 300.773 121.519C300.773 119.49 298.438 117.845 295.559 117.845C292.68 117.845 290.346 119.49 290.346 121.519C290.346 123.547 292.68 125.192 295.559 125.192Z" fill="#0CBC8B"/>
</g>
<g opacity="0.15">
<path opacity="0.15" d="M300.772 132.883H225.152V133.665H300.772V132.883Z" fill="#292A2E"/>
</g>
<g opacity="0.15">
<path opacity="0.15" d="M300.772 140.707H225.152V141.489H300.772V140.707Z" fill="#292A2E"/>
</g>
<g opacity="0.15">
<path opacity="0.15" d="M265.324 148.53H225.152V149.313H265.324V148.53Z" fill="#292A2E"/>
</g>
<g opacity="0.15">
<path opacity="0.15" d="M301.328 169.871H275.501V164.075H301.328V169.871ZM276.611 169.089H300.217V164.858H276.611V169.089Z" fill="#292A2E"/>
</g>
<path d="M265.157 164.467H240.44V169.48H265.157V164.467Z" fill="#0CBC8B"/>
<path opacity="0.48" d="M204.943 131.526C203.142 129.955 199.174 128.954 194.537 128.16C192.653 127.838 191.376 127.716 191.376 127.716C189.884 130.381 185.273 132.309 181.208 132.31H180.926C176.861 132.31 172.488 130.381 170.995 127.716C170.995 127.716 169.718 127.837 167.83 128.16C163.194 128.954 159.226 129.955 157.425 131.526C154.657 133.938 150.783 143.019 150.783 143.019L162.015 146.317C162.101 146.481 162.186 146.646 162.27 146.811C162.33 146.93 162.389 147.048 162.448 147.165C162.442 147.154 162.436 147.142 162.431 147.131C162.444 147.158 162.458 147.186 162.471 147.214C164.394 151.214 165.727 155.343 166.45 159.536C166.499 159.525 195.866 159.525 195.913 159.536C196.637 155.343 197.97 151.214 199.893 147.214V147.214C199.907 147.186 199.92 147.158 199.934 147.131C199.987 147.024 200.04 146.918 200.094 146.811C200.178 146.646 200.263 146.481 200.35 146.317L211.581 143.019C211.581 143.019 207.711 133.94 204.943 131.526Z" fill="white"/>
<path d="M204.943 131.526C203.142 129.955 199.174 128.954 194.537 128.16C192.653 127.838 191.376 127.716 191.376 127.716C189.884 130.381 185.273 132.309 181.208 132.31H180.926C176.861 132.31 172.488 130.381 170.995 127.716C170.995 127.716 169.718 127.837 167.83 128.16C163.194 128.954 159.226 129.955 157.425 131.526C154.657 133.938 150.783 143.019 150.783 143.019L162.015 146.317C162.101 146.481 162.186 146.646 162.27 146.811C162.33 146.93 162.389 147.048 162.448 147.165C162.442 147.154 162.436 147.142 162.431 147.131C162.444 147.158 162.458 147.186 162.471 147.214C164.394 151.214 165.727 155.343 166.45 159.536C166.499 159.525 195.866 159.525 195.913 159.536C196.637 155.343 197.97 151.214 199.893 147.214V147.214C199.907 147.186 199.92 147.158 199.934 147.131C199.987 147.024 200.04 146.918 200.094 146.811C200.178 146.646 200.263 146.481 200.35 146.317L211.581 143.019C211.581 143.019 207.711 133.94 204.943 131.526Z" fill="#0CBC8B"/>
<path opacity="0.48" d="M204.943 131.526C203.142 129.955 199.174 128.954 194.537 128.16C192.653 127.838 191.376 127.716 191.376 127.716C189.884 130.381 185.273 132.309 181.208 132.31H180.926C176.861 132.31 172.488 130.381 170.995 127.716C170.995 127.716 169.718 127.837 167.83 128.16C163.194 128.954 159.226 129.955 157.425 131.526C154.657 133.938 150.783 143.019 150.783 143.019L162.015 146.317C162.101 146.481 162.186 146.646 162.27 146.811C162.33 146.93 162.389 147.048 162.448 147.165C162.442 147.154 162.436 147.142 162.431 147.131C162.444 147.158 162.458 147.186 162.471 147.214C164.394 151.214 165.727 155.343 166.45 159.536C166.499 159.525 195.866 159.525 195.913 159.536C196.637 155.343 197.97 151.214 199.893 147.214V147.214C199.907 147.186 199.92 147.158 199.934 147.131C199.987 147.024 200.04 146.918 200.094 146.811C200.178 146.646 200.263 146.481 200.35 146.317L211.581 143.019C211.581 143.019 207.711 133.94 204.943 131.526Z" fill="white"/>
<g opacity="0.15">
<path opacity="0.15" d="M305.616 263.094H144.688C142.463 263.092 140.331 262.469 138.758 261.36C137.186 260.252 136.301 258.749 136.298 257.182V197.363C136.301 195.796 137.186 194.293 138.759 193.185C140.331 192.077 142.464 191.454 144.688 191.452H305.616C307.84 191.454 309.972 192.077 311.545 193.185C313.118 194.293 314.002 195.796 314.005 197.363V257.182C314.002 258.749 313.118 260.252 311.545 261.36C309.972 262.469 307.84 263.092 305.616 263.094V263.094ZM144.688 192.234C142.758 192.236 140.908 192.777 139.543 193.738C138.179 194.7 137.411 196.003 137.409 197.363V257.182C137.411 258.542 138.178 259.846 139.543 260.807C140.908 261.769 142.758 262.31 144.688 262.312H305.616C307.546 262.31 309.396 261.769 310.76 260.807C312.125 259.846 312.893 258.542 312.895 257.182V197.363C312.892 196.003 312.125 194.7 310.76 193.738C309.395 192.777 307.545 192.236 305.616 192.234H144.688Z" fill="#292A2E"/>
</g>
<g opacity="0.43">
<path opacity="0.43" d="M228.941 208.252C231.82 208.252 234.154 206.607 234.154 204.578C234.154 202.549 231.82 200.905 228.941 200.905C226.062 200.905 223.728 202.549 223.728 204.578C223.728 206.607 226.062 208.252 228.941 208.252Z" fill="#0CBC8B"/>
<path opacity="0.43" d="M245.595 208.252C248.475 208.252 250.809 206.607 250.809 204.578C250.809 202.549 248.475 200.905 245.595 200.905C242.716 200.905 240.382 202.549 240.382 204.578C240.382 206.607 242.716 208.252 245.595 208.252Z" fill="#0CBC8B"/>
<path opacity="0.43" d="M262.25 208.252C265.129 208.252 267.463 206.607 267.463 204.578C267.463 202.549 265.129 200.905 262.25 200.905C259.371 200.905 257.037 202.549 257.037 204.578C257.037 206.607 259.371 208.252 262.25 208.252Z" fill="#0CBC8B"/>
<path opacity="0.43" d="M278.905 208.252C281.784 208.252 284.118 206.607 284.118 204.578C284.118 202.549 281.784 200.905 278.905 200.905C276.025 200.905 273.691 202.549 273.691 204.578C273.691 206.607 276.025 208.252 278.905 208.252Z" fill="#0CBC8B"/>
<path opacity="0.43" d="M295.559 208.252C298.438 208.252 300.773 206.607 300.773 204.578C300.773 202.549 298.438 200.905 295.559 200.905C292.68 200.905 290.346 202.549 290.346 204.578C290.346 206.607 292.68 208.252 295.559 208.252Z" fill="#0CBC8B"/>
</g>
<g opacity="0.15">
<path opacity="0.15" d="M300.772 215.943H225.152V216.725H300.772V215.943Z" fill="#292A2E"/>
</g>
<g opacity="0.15">
<path opacity="0.15" d="M300.772 223.767H225.152V224.549H300.772V223.767Z" fill="#292A2E"/>
</g>
<g opacity="0.15">
<path opacity="0.15" d="M265.324 231.59H225.152V232.372H265.324V231.59Z" fill="#292A2E"/>
</g>
<g opacity="0.15">
<path opacity="0.15" d="M301.328 252.931H275.501V247.135H301.328V252.931ZM276.611 252.149H300.217V247.918H276.611V252.149Z" fill="#292A2E"/>
</g>
<path d="M265.157 247.526H240.44V252.539H265.157V247.526Z" fill="#0CBC8B"/>
<path opacity="0.48" d="M196.662 247.913C196.96 247.913 197.253 247.865 197.52 247.772C197.787 247.68 198.021 247.546 198.204 247.381C198.387 247.216 198.514 247.023 198.576 246.818C198.638 246.613 198.633 246.401 198.561 246.198C196.567 240.356 196.416 229.359 198.136 224.632L200.04 219.401L200.037 219.377C200.07 219.198 200.045 219.016 199.964 218.844C199.884 218.673 199.749 218.517 199.57 218.388C192.37 213.181 193.319 207.834 193.319 207.834H190.216C190.417 209.094 190.3 210.369 189.87 211.601C189.093 213.761 187.025 216.16 181.782 216.736C180.116 216.912 178.423 216.912 176.757 216.736V216.736C171.514 216.16 169.446 213.761 168.669 211.601C168.239 210.369 168.122 209.094 168.323 207.834H165.222C165.222 207.834 166.169 213.181 158.969 218.387C158.79 218.516 158.655 218.673 158.575 218.844C158.494 219.015 158.469 219.197 158.502 219.376L158.476 219.401L160.38 224.632C162.101 229.358 161.949 240.357 159.956 246.197C159.884 246.401 159.879 246.613 159.941 246.818C160.002 247.023 160.13 247.215 160.312 247.381C160.495 247.546 160.729 247.68 160.996 247.772C161.263 247.864 161.557 247.912 161.854 247.913L196.662 247.913Z" fill="white"/>
<path d="M196.662 247.913C196.96 247.913 197.253 247.865 197.52 247.772C197.787 247.68 198.021 247.546 198.204 247.381C198.387 247.216 198.514 247.023 198.576 246.818C198.638 246.613 198.633 246.401 198.561 246.198C196.567 240.356 196.416 229.359 198.136 224.632L200.04 219.401L200.037 219.377C200.07 219.198 200.045 219.016 199.964 218.844C199.884 218.673 199.749 218.517 199.57 218.388C192.37 213.181 193.319 207.834 193.319 207.834H190.216C190.417 209.094 190.3 210.369 189.87 211.601C189.093 213.761 187.025 216.16 181.782 216.736C180.116 216.912 178.423 216.912 176.757 216.736V216.736C171.514 216.16 169.446 213.761 168.669 211.601C168.239 210.369 168.122 209.094 168.323 207.834H165.222C165.222 207.834 166.169 213.181 158.969 218.387C158.79 218.516 158.655 218.673 158.575 218.844C158.494 219.015 158.469 219.197 158.502 219.376L158.476 219.401L160.38 224.632C162.101 229.358 161.949 240.357 159.956 246.197C159.884 246.401 159.879 246.613 159.941 246.818C160.002 247.023 160.13 247.215 160.312 247.381C160.495 247.546 160.729 247.68 160.996 247.772C161.263 247.864 161.557 247.912 161.854 247.913L196.662 247.913Z" fill="#0CBC8B"/>
<path opacity="0.48" d="M196.662 247.913C196.96 247.913 197.253 247.865 197.52 247.772C197.787 247.68 198.021 247.546 198.204 247.381C198.387 247.216 198.514 247.023 198.576 246.818C198.638 246.613 198.633 246.401 198.561 246.198C196.567 240.356 196.416 229.359 198.136 224.632L200.04 219.401L200.037 219.377C200.07 219.198 200.045 219.016 199.964 218.844C199.884 218.673 199.749 218.517 199.57 218.388C192.37 213.181 193.319 207.834 193.319 207.834H190.216C190.417 209.094 190.3 210.369 189.87 211.601C189.093 213.761 187.025 216.16 181.782 216.736C180.116 216.912 178.423 216.912 176.757 216.736V216.736C171.514 216.16 169.446 213.761 168.669 211.601C168.239 210.369 168.122 209.094 168.323 207.834H165.222C165.222 207.834 166.169 213.181 158.969 218.387C158.79 218.516 158.655 218.673 158.575 218.844C158.494 219.015 158.469 219.197 158.502 219.376L158.476 219.401L160.38 224.632C162.101 229.358 161.949 240.357 159.956 246.197C159.884 246.401 159.879 246.613 159.941 246.818C160.002 247.023 160.13 247.215 160.312 247.381C160.495 247.546 160.729 247.68 160.996 247.772C161.263 247.864 161.557 247.912 161.854 247.913L196.662 247.913Z" fill="white"/>
<path d="M376.424 324.693C376.424 324.693 373.917 333.847 361.752 334.359C349.587 334.87 352.225 341.698 352.225 341.698H398.713V325.332L376.424 324.693Z" fill="#0CBC8B"/>
<path d="M390.763 157.687C390.763 157.687 390.617 154.934 390.648 161.177C390.763 184.464 391.336 211.063 392.737 226.628C394.99 251.649 400.765 330.536 400.765 330.536L370.217 330.355L340.609 156.74L390.763 157.687Z" fill="#262626"/>
<path d="M356.266 185.146C356.266 185.146 355 202.045 354.767 206.012C354.224 215.187 354.036 224.687 354.036 235.457L349.221 207.222C349.221 207.222 352.742 198.374 356.266 185.146Z" fill="#0A0A0A"/>
<path d="M322.041 324.693C322.041 324.693 319.534 333.847 307.369 334.359C295.204 334.87 297.842 341.698 297.842 341.698H344.33V325.332L322.041 324.693Z" fill="#0CBC8B"/>
<path d="M307.249 159.495C307.249 159.495 304.544 239.083 304.94 242.973L316.301 329.932L346.343 330.323L343.416 239.826C343.416 239.826 345.48 214.863 354.04 191.683C358.42 179.786 361.056 167.603 361.906 155.327L307.249 159.495Z" fill="#262626"/>
<path d="M391.095 157.685L391.195 157.689C391.195 157.689 391.122 156.331 391.095 157.685Z" fill="#333333"/>
<path d="M302.949 115.32C303.58 120.535 306.644 153.072 307.25 159.496H390.731C391.203 153.703 393.32 128.368 395.108 117.038C396.816 106.227 400.165 100.814 397.71 97.6179C393.698 92.3941 382.736 89.3754 375.262 88.6622C370.697 88.2269 363.833 87.9147 363.833 87.9147C363.833 87.9147 363.251 96.1987 349.39 96.6607C330.523 97.2866 331.782 87.9143 331.689 87.9143C328.632 87.9143 310.834 88.9271 306.9 91.0617C300.019 94.7944 301.612 104.266 302.949 115.32Z" fill="#0CBC8B"/>
<path d="M301.796 108.783C301.725 108.783 301.656 108.764 301.605 108.73C301.553 108.696 301.522 108.649 301.518 108.599L300.845 100.317C300.84 100.266 300.866 100.215 300.914 100.176C300.963 100.137 301.032 100.114 301.106 100.111C301.179 100.108 301.251 100.126 301.305 100.161C301.36 100.195 301.394 100.243 301.399 100.295L302.072 108.576C302.076 108.628 302.051 108.679 302.002 108.718C301.953 108.756 301.885 108.78 301.811 108.783L301.796 108.783Z" fill="#0C0C0C"/>
<path d="M408.777 159.154C411.232 159.154 413.651 158.736 415.828 157.935C418.004 157.134 419.874 155.975 421.278 154.556C422.682 153.136 423.579 151.499 423.891 149.783C424.204 148.067 423.924 146.323 423.075 144.7C422.212 143.052 401.993 105.325 398.144 98.3347L369.644 106.471C371.809 110.402 379.649 125.3 385.949 137.301L375.483 136.499L372.189 157.852L407.127 159.091C407.675 159.133 408.226 159.154 408.777 159.154Z" fill="#0CBC8B"/>
<path d="M321.744 87.1989C321.837 87.1903 324.398 93.9804 344.382 92.9238C358.216 92.1935 361.591 85.5579 361.907 85.5579C360.415 85.3345 357.993 85.1026 357.33 84.8538C355.151 84.0292 353.565 83.025 352.766 80.8704C352.142 79.1852 351.822 72.6982 351.822 69.4436L330.534 72.8144C330.831 76.4856 332.908 84.9969 325.629 86.5034C324.418 86.7522 323.114 86.9814 321.744 87.1989Z" fill="#E98862"/>
<path d="M331.271 80.0319C339.664 80.4982 350.444 78.0017 352.492 70.112L354.34 62.9925C356.388 55.1028 352.167 47.9489 341.624 46.5903C331.082 45.2318 321.542 50.6121 319.494 58.5018L318.676 61.6535C317.89 64.6813 316.298 79.1995 331.271 80.0319Z" fill="#E98862"/>
<path d="M323.489 72.7882C324.996 67.4544 325.687 63.8963 325.606 60.1421C323.484 57.5212 324.042 54.5091 324.525 53.2088C323.064 53.863 321.346 54.1735 319.618 54.0956C319.618 54.0956 323.127 44.1722 335.054 41.502C337.247 40.9003 342.847 40.1407 350.282 40.8593C356.606 41.4703 372.195 44.8024 374.422 57.1684V57.1754C374.495 57.5854 375.992 68.9793 378.974 74.446C382.986 81.7951 388.617 84.0784 388.474 92.5577C388.291 103.464 359.835 104.916 342.674 104.1C325.514 103.284 315.931 99.3075 315.805 91.4475C315.669 82.6408 320.475 83.4588 323.489 72.7882Z" fill="#0A0A0A"/>
<path d="M392.512 117.256L390.46 159.49L391.015 159.503L393.066 117.269L392.512 117.256Z" fill="#0C0C0C"/>
<path d="M211.417 68.9805L220.388 76.4466L219.833 75.1647C219.666 74.7484 219.729 74.3028 220.009 73.918C220.29 73.5331 220.768 73.2377 221.345 73.0914C221.648 73.0232 221.966 72.9991 222.282 73.0205C222.598 73.0419 222.904 73.1085 223.182 73.2161C223.46 73.3237 223.704 73.47 223.899 73.6462C224.094 73.8225 224.236 74.0249 224.317 74.2411L228.418 85.1229C228.935 86.4966 228.671 87.9585 227.681 89.1967C226.69 90.435 225.052 91.3515 223.116 91.7507C220.869 92.2144 218.476 92.1946 216.245 91.6937C214.013 91.1929 212.045 90.2339 210.592 88.9397L204.026 83.0684C203.676 82.7681 203.485 82.3918 203.484 82.0034C203.483 81.6149 203.672 81.2382 204.02 80.9369C204.342 80.6692 204.777 80.4812 205.262 80.4003C205.746 80.3194 206.255 80.35 206.713 80.4874C206.72 80.4688 206.732 80.4513 206.749 80.436C206.766 80.4208 206.787 80.4081 206.811 80.3988C206.835 80.3895 206.861 80.3837 206.888 80.3818C206.916 80.3798 206.943 80.3819 206.969 80.3877L205.753 79.3041C205.38 78.9864 205.183 78.5845 205.199 78.1726C205.214 77.7606 205.44 77.3664 205.835 77.0627C206.24 76.7708 206.784 76.5954 207.362 76.5707C207.94 76.546 208.51 76.6737 208.962 76.9289C208.965 76.9115 208.973 76.8946 208.984 76.8792L208.485 76.4348C208.159 76.1304 207.981 75.7603 207.977 75.379C207.972 74.9977 208.142 74.6256 208.462 74.3177C208.852 73.9862 209.41 73.7755 210.018 73.7308C210.626 73.686 211.234 73.8108 211.713 74.0783L211.745 74.056L207.976 70.9192C207.782 70.7583 207.638 70.5714 207.55 70.3698C207.463 70.1682 207.434 69.9562 207.467 69.7466C207.5 69.5371 207.593 69.3344 207.74 69.151C207.888 68.9677 208.087 68.8074 208.325 68.6801C208.799 68.4449 209.382 68.3451 209.955 68.4009C210.529 68.4566 211.052 68.6638 211.417 68.9805Z" fill="#E98862"/>
<path opacity="0.2" d="M211.621 74.2527C211.63 74.2695 211.643 74.2851 211.66 74.2985L215.371 77.3157C215.412 77.3407 215.463 77.3546 215.517 77.3548C215.571 77.355 215.623 77.3415 215.663 77.3168C215.704 77.292 215.731 77.2578 215.738 77.2203C215.746 77.1829 215.734 77.1447 215.705 77.113L211.993 74.0962C211.959 74.0689 211.913 74.0508 211.862 74.0451C211.811 74.0394 211.759 74.0466 211.715 74.0652C211.671 74.0839 211.637 74.1129 211.62 74.1472C211.603 74.1814 211.604 74.2188 211.623 74.2527H211.621Z" fill="#0C0C0C"/>
<path opacity="0.2" d="M208.967 76.9992C208.976 77.0156 208.989 77.0308 209.005 77.0442L211.896 79.4304C211.936 79.4543 211.987 79.4674 212.04 79.4673C212.092 79.4671 212.143 79.4538 212.183 79.4297C212.223 79.4056 212.25 79.3723 212.258 79.3356C212.266 79.299 212.256 79.2615 212.229 79.2297L209.338 76.8435C209.303 76.8178 209.257 76.8012 209.207 76.7964C209.157 76.7916 209.106 76.7988 209.063 76.817C209.02 76.8352 208.986 76.8633 208.969 76.8965C208.951 76.9298 208.95 76.9663 208.966 77L208.967 76.9992Z" fill="#0C0C0C"/>
<path opacity="0.2" d="M206.711 80.5896C206.72 80.6073 206.734 80.6235 206.752 80.6373L208.155 81.7424C208.172 81.7614 208.195 81.7775 208.222 81.7895C208.249 81.8016 208.28 81.8095 208.311 81.8125C208.343 81.8155 208.376 81.8136 208.406 81.8069C208.437 81.8003 208.465 81.7891 208.489 81.774C208.513 81.7589 208.532 81.7404 208.545 81.7196C208.557 81.6989 208.564 81.6765 208.563 81.6539C208.562 81.6313 208.555 81.6091 208.541 81.5888C208.527 81.5685 208.506 81.5505 208.482 81.5362L207.079 80.4311C207.043 80.4065 206.997 80.3909 206.948 80.3868C206.899 80.3827 206.849 80.3904 206.807 80.4087C206.764 80.4269 206.732 80.4547 206.714 80.4875C206.697 80.5203 206.696 80.5562 206.711 80.5896V80.5896Z" fill="#0C0C0C"/>
<path d="M255.7 139.28C252.876 139.28 250.1 138.765 247.641 137.786C245.183 136.807 243.125 135.396 241.669 133.692L205.369 91.198L233.431 79.2952L261.027 111.599L306.9 91.0623L326.333 109.423L264.564 137.443C261.92 138.642 258.843 139.28 255.7 139.28V139.28Z" fill="#0CBC8B"/>
<path d="M303.414 120.006C303.352 120.006 303.292 119.991 303.243 119.964C303.194 119.937 303.159 119.899 303.145 119.857C303.13 119.814 303.136 119.769 303.162 119.729C303.188 119.69 303.232 119.657 303.287 119.637L311.213 116.755C311.279 116.731 311.355 116.727 311.425 116.742C311.495 116.758 311.554 116.793 311.587 116.839C311.621 116.885 311.628 116.939 311.605 116.988C311.583 117.038 311.534 117.079 311.468 117.103L303.542 119.985C303.502 119.999 303.458 120.006 303.414 120.006V120.006Z" fill="#0C0C0C"/>
<path d="M177.212 341.231H157.555L149.598 284.466H169.256L177.212 341.231Z" fill="#A29E91"/>
<path opacity="0.21" d="M177.212 341.231H157.555L149.598 284.466H169.256L177.212 341.231Z" fill="#0A0A0A"/>
<path d="M157.555 341.231H81.0432L88.9996 284.466H149.598L157.555 341.231Z" fill="#A29E91"/>
<path d="M119.3 307.693C117.059 307.693 114.841 307.382 112.771 306.778C110.701 306.173 108.821 305.288 107.237 304.172C105.652 303.055 104.396 301.73 103.538 300.272C102.681 298.813 102.24 297.25 102.24 295.671V290.53C102.237 290.442 102.259 290.355 102.304 290.273C102.35 290.191 102.418 290.117 102.505 290.054C102.592 289.991 102.696 289.941 102.811 289.907C102.926 289.873 103.049 289.855 103.174 289.855C103.299 289.855 103.422 289.873 103.537 289.907C103.652 289.941 103.756 289.991 103.843 290.054C103.93 290.117 103.998 290.191 104.044 290.273C104.089 290.355 104.111 290.442 104.108 290.53V295.671C104.108 298.51 105.709 301.232 108.558 303.24C111.407 305.247 115.271 306.375 119.3 306.375C123.329 306.375 127.193 305.247 130.042 303.24C132.891 301.232 134.492 298.51 134.492 295.671V290.53C134.492 290.355 134.59 290.188 134.765 290.064C134.94 289.941 135.178 289.871 135.426 289.871C135.674 289.871 135.911 289.941 136.087 290.064C136.262 290.188 136.36 290.355 136.36 290.53V295.671C136.355 298.858 134.556 301.914 131.358 304.167C128.16 306.421 123.823 307.689 119.3 307.693V307.693Z" fill="white"/>
<path opacity="0.08" d="M149.598 284.466L160.451 291.925L169.256 284.466H149.598Z" fill="#0A0A0A"/>
<path opacity="0.08" d="M157.555 341.231L166.334 333.772L177.213 341.231H157.555Z" fill="#0A0A0A"/>
<path d="M417.623 342H0.444564C0.386948 342.001 0.329505 341.995 0.275664 341.98C0.221824 341.966 0.17269 341.944 0.131196 341.915C0.0897022 341.887 0.0566996 341.853 0.0341585 341.816C0.0116174 341.779 0 341.738 0 341.698C0 341.657 0.0116174 341.617 0.0341585 341.58C0.0566996 341.542 0.0897022 341.508 0.131196 341.48C0.17269 341.452 0.221824 341.43 0.275664 341.415C0.329505 341.401 0.386948 341.394 0.444564 341.396H417.623C417.681 341.394 417.738 341.401 417.792 341.415C417.846 341.43 417.895 341.452 417.937 341.48C417.978 341.508 418.011 341.542 418.034 341.58C418.056 341.617 418.068 341.657 418.068 341.698C418.068 341.738 418.056 341.779 418.034 341.816C418.011 341.853 417.978 341.887 417.937 341.915C417.895 341.944 417.846 341.966 417.792 341.98C417.738 341.995 417.681 342.001 417.623 342V342Z" fill="#3F3F3F"/>
</svg>
