<svg width="426" height="342" viewBox="0 0 426 342" fill="none" xmlns="http://www.w3.org/2000/svg">
<path d="M304.473 143.773C273.524 139.644 251.365 146.828 234.065 157.989C216.766 169.15 211.273 186.724 158.704 194.569C106.136 202.413 88.1473 221.019 84.4603 244.429C80.7732 267.838 105.689 302.064 164.03 302.064H279.614C300.823 302.064 348.513 298.459 368.997 263.888C389.48 229.318 392.199 155.649 304.473 143.773Z" fill="white"/>
<path d="M328.158 161.677C322.72 155.182 319.592 152.856 307.041 150.668C294.49 148.479 248.178 159.943 236.912 164.994C225.646 170.045 208.98 187.316 189.223 196.344C169.465 205.372 120.993 211.758 113.265 251.847C107.549 281.531 130.025 295.541 153.134 301.61C156.753 301.895 160.389 302.038 164.028 302.037H219.669C225.646 289.018 242.778 267.04 279.258 243.92C329.573 212.019 333.595 168.173 328.158 161.677Z" fill="#A0616A"/>
<path d="M304.473 143.773C273.524 139.644 251.365 146.828 234.065 157.989C216.766 169.15 211.273 186.724 158.704 194.569C106.136 202.413 88.1473 221.019 84.4603 244.429C80.7732 267.838 105.689 302.064 164.03 302.064H279.614C300.823 302.064 348.513 298.459 368.997 263.888C389.48 229.318 392.199 155.649 304.473 143.773Z" stroke="black" stroke-width="1.58569" stroke-linecap="round" stroke-linejoin="round"/>
<path d="M82.969 257.516L59.8784 279.811L62.4854 287.779L73.6583 291.674C74.637 289.411 76.1226 287.285 78.053 285.385C81.1256 282.44 97.9779 266.998 97.9779 266.998L82.969 257.516Z" fill="white" stroke="black" stroke-width="1.58569" stroke-linecap="round" stroke-linejoin="round"/>
<path d="M68.2981 304.17L64.2759 308.574L1 281.132L5.00362 276.742L24.9473 285.385L68.2981 304.17Z" fill="white"/>
<path d="M51.035 275.545C56.6215 275.09 58.4836 273.535 60.2341 274.444C61.9845 275.352 62.6921 278.091 59.1726 279.811C57.8903 279.275 56.4685 278.946 55.0014 278.847C51.1281 278.407 35.4302 276.962 31.9293 276.728C28.4285 276.494 27.7954 278.269 27.7954 278.269C27.8282 277.258 27.6394 276.25 27.2367 275.283C27.2367 275.283 28.1492 274.003 31.259 274.389C34.3688 274.774 45.5231 275.971 51.035 275.545Z" fill="#3BB77E"/>
<path d="M31.9284 276.728C35.4292 276.962 51.1272 278.407 55.0004 278.848C56.4675 278.947 57.8894 279.275 59.1716 279.811C60.383 280.404 61.3647 281.22 62.0207 282.178C63.8549 284.572 66.4985 286.573 69.6928 287.986C73.0075 289.362 74.7951 289.045 74.9999 291.192C74.5606 295.915 72.2267 300.433 68.2962 304.17L24.9453 285.385C26.6952 283.23 27.6756 280.781 27.7945 278.27C27.7945 278.27 28.4275 276.508 31.9284 276.728Z" fill="#3F3D56"/>
<path d="M27.234 275.283C27.6367 276.25 27.8254 277.258 27.7927 278.27C27.6738 280.781 26.6934 283.23 24.9435 285.385L4.99988 276.728C4.99988 276.728 10.1394 270.315 27.1036 275.022C27.1036 275.022 27.1595 275.118 27.234 275.283Z" fill="white"/>
<path d="M68.2981 304.17L24.9473 285.385L5.00362 276.742L1 281.132L64.2759 308.574L68.2981 304.17Z" stroke="black" stroke-width="1.58569" stroke-linecap="round" stroke-linejoin="round"/>
<path d="M4.99988 276.728C4.99988 276.728 10.1394 270.315 27.1036 275.022C27.1036 275.022 27.1036 275.118 27.234 275.283C27.6367 276.25 27.8254 277.258 27.7927 278.27C27.6738 280.781 26.6934 283.23 24.9435 285.385" stroke="black" stroke-width="1.58569" stroke-linecap="round" stroke-linejoin="round"/>
<path d="M27.7382 278.27C27.7382 278.27 28.3712 276.508 31.8721 276.728C35.3729 276.949 51.0709 278.407 54.9441 278.848C56.4112 278.947 57.8331 279.275 59.1153 279.811C60.3267 280.404 61.3086 281.22 61.9645 282.178C63.7987 284.572 66.4422 286.573 69.6365 287.986C72.9512 289.362 74.7388 289.045 74.9436 291.192C74.5043 295.915 72.1704 300.433 68.2399 304.17" stroke="black" stroke-width="1.58569" stroke-linecap="round" stroke-linejoin="round"/>
<path d="M27.2367 275.283C27.2367 275.283 28.1492 274.004 31.259 274.389C34.3688 274.774 45.5231 275.972 51.035 275.545C56.547 275.118 58.4836 273.536 60.2341 274.444C61.9845 275.352 62.6921 278.091 59.1726 279.811" stroke="black" stroke-width="1.58569" stroke-linecap="round" stroke-linejoin="round"/>
<path d="M35.7277 279.412C35.764 279.698 35.6453 279.984 35.3975 280.206C35.1497 280.427 34.793 280.568 34.4056 280.595C34.0162 280.618 33.6301 280.527 33.3305 280.342C33.031 280.157 32.8419 279.892 32.8041 279.605L32.1524 274.1C32.1345 273.957 32.155 273.813 32.2128 273.676C32.2707 273.539 32.3646 273.412 32.4893 273.302C32.6139 273.192 32.7668 273.101 32.9391 273.035C33.1114 272.969 33.2997 272.928 33.4932 272.916C33.8795 272.897 34.2608 272.99 34.5562 273.175C34.8517 273.36 35.0381 273.622 35.076 273.907L35.7277 279.412Z" fill="white" stroke="black" stroke-width="1.58569" stroke-linecap="round" stroke-linejoin="round"/>
<path d="M41.871 280.307C41.8974 280.594 41.7726 280.877 41.5227 281.098C41.2728 281.318 40.9172 281.459 40.5302 281.49C40.1428 281.513 39.7589 281.422 39.4623 281.236C39.1657 281.05 38.9807 280.786 38.9474 280.499L38.1653 274.471C38.1474 274.329 38.1682 274.186 38.2262 274.05C38.2842 273.914 38.3784 273.787 38.5033 273.678C38.6281 273.57 38.7811 273.48 38.9532 273.415C39.1254 273.351 39.3134 273.312 39.5061 273.302C39.6984 273.289 39.8924 273.304 40.0766 273.347C40.2609 273.39 40.4316 273.459 40.579 273.551C40.7264 273.644 40.8474 273.757 40.935 273.884C41.0225 274.011 41.0748 274.15 41.0889 274.293L41.871 280.307Z" fill="white" stroke="black" stroke-width="1.58569" stroke-linecap="round" stroke-linejoin="round"/>
<path d="M47.9985 281.064C48.0164 281.206 47.9959 281.351 47.9381 281.488C47.8803 281.625 47.7863 281.752 47.6617 281.862C47.537 281.972 47.3841 282.062 47.2118 282.129C47.0395 282.195 46.8512 282.235 46.6577 282.247C46.2714 282.266 45.8902 282.174 45.5947 281.989C45.2992 281.804 45.1128 281.541 45.0749 281.256L44.1811 274.761C44.1633 274.618 44.1839 274.475 44.242 274.339C44.3 274.203 44.3942 274.076 44.5191 273.968C44.6439 273.859 44.7969 273.769 44.9691 273.704C45.1413 273.64 45.3292 273.601 45.5218 273.591C45.7127 273.578 45.9053 273.592 46.0884 273.634C46.2715 273.676 46.4415 273.745 46.5886 273.836C46.7358 273.926 46.8572 274.038 46.9457 274.164C47.0343 274.289 47.0884 274.427 47.1047 274.568L47.9985 281.064Z" fill="white" stroke="black" stroke-width="1.58569" stroke-linecap="round" stroke-linejoin="round"/>
<path d="M54.1247 281.889C54.1426 282.032 54.1221 282.176 54.0642 282.313C54.0064 282.45 53.9125 282.577 53.7878 282.687C53.6632 282.797 53.5104 282.888 53.3381 282.954C53.1658 283.02 52.9775 283.061 52.784 283.073C52.3966 283.096 52.0127 283.004 51.7161 282.819C51.4195 282.633 51.2343 282.368 51.2011 282.082L50.1956 275.118C50.1777 274.975 50.1982 274.831 50.2561 274.694C50.3139 274.557 50.4078 274.43 50.5325 274.32C50.6571 274.21 50.81 274.119 50.9823 274.053C51.1546 273.987 51.3429 273.947 51.5364 273.935C51.7287 273.921 51.9226 273.937 52.1068 273.98C52.2911 274.023 52.4619 274.092 52.6093 274.184C52.7567 274.277 52.8777 274.39 52.9653 274.517C53.0528 274.644 53.1052 274.783 53.1192 274.926L54.1247 281.889Z" fill="white" stroke="black" stroke-width="1.58569" stroke-linecap="round" stroke-linejoin="round"/>
<path d="M135.445 198.161L79.5804 259.32L101.386 273.605L150.64 227.859C150.64 227.859 180.9 237.644 188.051 237.644H224.121C229.06 237.446 233.811 236.18 237.784 234.002C241.757 231.824 244.776 228.832 246.466 225.396C249.055 220.07 253.096 206.707 230.266 198.216L135.445 198.161Z" fill="white"/>
<path d="M230.285 198.161H135.446L115.26 220.18L141.051 236.763L150.697 227.804C150.697 227.804 180.901 237.644 188.051 237.644H224.121C229.06 237.446 233.812 236.18 237.785 234.002C241.757 231.824 244.777 228.832 246.467 225.396C249.074 220.015 253.059 206.652 230.285 198.161Z" fill="#3BB77E"/>
<path d="M135.445 198.161L79.5804 259.32L101.386 273.605L150.64 227.859C150.64 227.859 180.9 237.644 188.051 237.644H224.121C229.06 237.446 233.811 236.18 237.784 234.002C241.757 231.824 244.776 228.832 246.466 225.396C249.055 220.07 253.096 206.707 230.266 198.216L135.445 198.161Z" fill="#737375" stroke="black" stroke-width="1.58569" stroke-linecap="round" stroke-linejoin="round"/>
<path d="M150.641 227.859C150.641 227.859 155.073 218.047 150.808 210.216" stroke="#007DEA" stroke-width="1.58569" stroke-linecap="round" stroke-linejoin="round"/>
<path d="M84.4578 253.911L106.468 268.843" stroke="black" stroke-width="1.58569" stroke-linecap="round" stroke-linejoin="round"/>
<path d="M306.428 101.674C304.119 114.06 303.02 117.831 308.29 124.052C313.56 130.272 319.016 139.713 309.389 146.291H264.399V100.725L306.428 101.674Z" fill="black" stroke="black" stroke-width="1.58569" stroke-linecap="round" stroke-linejoin="round"/>
<path d="M260.153 132.377C257.211 134.277 247.211 137.703 245.014 138.777C242.816 139.85 231.979 150.076 230.563 154.576C229.148 159.076 230.564 167.952 229.334 173.843C228.105 179.733 217.249 202.839 217.249 202.839L271.345 225.34C273.156 220.712 274.402 215.972 275.069 211.179C275.547 204.48 278.841 198.057 284.491 192.807C291.139 186.201 311.567 160.604 313.15 153.764C314.733 146.924 313.578 143.951 307.712 140.002C303.988 137.552 292.517 133.341 292.517 133.341L260.153 132.377Z" fill="#CCCCCC" stroke="black" stroke-width="1.58569" stroke-linecap="round" stroke-linejoin="round"/>
<path d="M113.172 256.718L94.5508 279.013L98.7779 286.981L110.789 290.876C111.295 288.654 112.356 286.522 113.917 284.587C116.394 281.641 130.118 266.2 130.118 266.2L113.172 256.718Z" fill="white" stroke="black" stroke-width="1.58569" stroke-linecap="round" stroke-linejoin="round"/>
<path d="M105.392 303.372L101.369 307.776L38.0935 280.348L42.0971 275.93L62.0408 284.586L105.392 303.372Z" fill="white"/>
<path d="M88.1284 274.801C93.7149 274.347 95.577 272.792 97.3274 273.701C99.0779 274.609 99.7855 277.347 96.266 279.068C94.9837 278.532 93.5619 278.203 92.0948 278.104C88.2215 277.664 72.5236 276.219 69.0227 275.985C65.5219 275.751 64.8888 277.526 64.8888 277.526C64.9216 276.515 64.7329 275.507 64.3302 274.54C64.3302 274.54 65.2426 273.26 68.3524 273.645C71.4622 274.031 82.6165 275.173 88.1284 274.801Z" fill="#3BB77E"/>
<path d="M69.0219 275.93C72.5227 276.164 88.2207 277.609 92.0939 278.05C93.561 278.148 94.9829 278.477 96.2651 279.013C97.4765 279.606 98.4584 280.422 99.1143 281.38C100.947 283.77 103.583 285.771 106.768 287.188C110.101 288.564 111.889 288.247 112.093 290.394C111.654 295.116 109.32 299.635 105.39 303.372L62.0388 284.587C63.7887 282.431 64.7691 279.983 64.888 277.472C64.888 277.472 65.5024 275.71 69.0219 275.93Z" fill="#3F3D56"/>
<path d="M64.3273 274.485C64.7301 275.452 64.9187 276.46 64.886 277.471C64.7671 279.983 63.7867 282.431 62.0368 284.586L42.0933 275.93C42.0933 275.93 47.2328 269.517 64.197 274.223C64.197 274.223 64.2529 274.32 64.3273 274.485Z" fill="white"/>
<path d="M105.392 303.372L62.0408 284.586L42.0971 275.93L38.0935 280.348L101.369 307.776L105.392 303.372Z" stroke="black" stroke-width="1.58569" stroke-linecap="round" stroke-linejoin="round"/>
<path d="M42.0933 275.93C42.0933 275.93 47.2328 269.517 64.197 274.223C64.197 274.223 64.197 274.32 64.3273 274.485C64.7301 275.452 64.9187 276.46 64.886 277.471C64.7671 279.983 63.7867 282.431 62.0368 284.586" stroke="black" stroke-width="1.58569" stroke-linecap="round" stroke-linejoin="round"/>
<path d="M64.9818 277.472C64.9818 277.472 65.5963 275.71 69.1157 275.93C72.6352 276.15 88.3145 277.609 92.1878 278.05C93.6549 278.148 95.0767 278.477 96.359 279.013C97.5703 279.606 98.5522 280.422 99.2081 281.38C101.041 283.77 103.677 285.771 106.862 287.188C110.195 288.564 111.982 288.247 112.187 290.394C111.748 295.116 109.414 299.635 105.484 303.372" stroke="black" stroke-width="1.58569" stroke-linecap="round" stroke-linejoin="round"/>
<path d="M64.3302 274.485C64.3302 274.485 65.2426 273.205 68.3524 273.591C71.4622 273.976 82.6165 275.173 88.1284 274.747C93.6404 274.32 95.577 272.737 97.3274 273.646C99.0779 274.554 99.7855 277.293 96.266 279.013" stroke="black" stroke-width="1.58569" stroke-linecap="round" stroke-linejoin="round"/>
<path d="M72.8198 278.614C72.8377 278.755 72.8176 278.897 72.7607 279.033C72.7039 279.168 72.6113 279.294 72.4884 279.402C72.3655 279.511 72.2146 279.601 72.0446 279.666C71.8745 279.732 71.6887 279.772 71.4977 279.784C71.1101 279.811 70.724 279.723 70.4238 279.54C70.1237 279.357 69.934 279.093 69.8962 278.807L69.2444 273.302C69.213 273.155 69.2228 273.004 69.2733 272.86C69.3237 272.716 69.4138 272.581 69.5378 272.464C69.6617 272.346 69.817 272.249 69.994 272.178C70.171 272.106 70.3659 272.063 70.5666 272.049C70.9529 272.03 71.3343 272.123 71.6297 272.308C71.9252 272.493 72.1115 272.756 72.1494 273.04L72.8198 278.614Z" fill="white" stroke="black" stroke-width="1.58569" stroke-linecap="round" stroke-linejoin="round"/>
<path d="M78.9644 279.439C78.9908 279.726 78.866 280.01 78.6161 280.23C78.3662 280.451 78.0106 280.592 77.6236 280.623C77.2362 280.646 76.8523 280.554 76.5557 280.369C76.2591 280.183 76.0741 279.918 76.0409 279.632L75.2588 273.604C75.2409 273.462 75.2616 273.319 75.3196 273.183C75.3776 273.046 75.4718 272.92 75.5967 272.811C75.7215 272.702 75.8746 272.613 76.0468 272.548C76.219 272.484 76.4068 272.445 76.5995 272.435C76.7918 272.421 76.9858 272.437 77.17 272.48C77.3543 272.522 77.5251 272.592 77.6725 272.684C77.8199 272.777 77.9409 272.89 78.0285 273.017C78.116 273.144 78.1683 273.283 78.1824 273.425L78.9644 279.439Z" fill="white" stroke="black" stroke-width="1.58569" stroke-linecap="round" stroke-linejoin="round"/>
<path d="M85.0921 280.306C85.11 280.449 85.0894 280.593 85.0316 280.73C84.9738 280.867 84.8798 280.995 84.7552 281.105C84.6306 281.215 84.4778 281.305 84.3055 281.371C84.1332 281.438 83.9449 281.478 83.7514 281.49C83.365 281.509 82.9837 281.417 82.6882 281.232C82.3928 281.047 82.2063 280.784 82.1685 280.499L81.2747 274.003C81.2568 273.861 81.2773 273.716 81.3352 273.579C81.393 273.442 81.4869 273.315 81.6116 273.205C81.7362 273.095 81.889 273.005 82.0613 272.938C82.2336 272.872 82.4219 272.832 82.6154 272.82C83.0017 272.801 83.3831 272.893 83.6785 273.078C83.974 273.263 84.1604 273.526 84.1983 273.811L85.0921 280.306Z" fill="white" stroke="black" stroke-width="1.58569" stroke-linecap="round" stroke-linejoin="round"/>
<path d="M91.2198 281.091C91.2377 281.234 91.2171 281.378 91.1593 281.515C91.1015 281.652 91.0075 281.779 90.8829 281.889C90.7583 281.999 90.6054 282.09 90.4331 282.156C90.2608 282.222 90.0724 282.262 89.879 282.274C89.4915 282.297 89.1076 282.206 88.8111 282.02C88.5145 281.835 88.3294 281.57 88.2962 281.284L87.2906 274.32C87.2727 274.177 87.2932 274.033 87.351 273.896C87.4088 273.759 87.5028 273.632 87.6274 273.522C87.7521 273.412 87.905 273.321 88.0773 273.255C88.2496 273.189 88.4379 273.149 88.6314 273.136C88.8237 273.123 89.0177 273.139 89.2019 273.181C89.3862 273.224 89.5569 273.294 89.7043 273.386C89.8517 273.478 89.9727 273.592 90.0603 273.719C90.1478 273.846 90.2001 273.985 90.2142 274.127L91.2198 281.091Z" fill="white" stroke="black" stroke-width="1.58569" stroke-linecap="round" stroke-linejoin="round"/>
<path d="M154.792 198.161L111.237 259.32L135.929 273.605L176.058 227.859C176.058 227.859 208.218 237.644 215.368 237.644H251.438C254.846 237.644 268.328 235.938 271.344 225.396C272.853 220.07 274.175 206.707 249.65 198.216L154.792 198.161Z" fill="#737375" stroke="black" stroke-width="1.58569" stroke-linecap="round" stroke-linejoin="round"/>
<path d="M176.059 227.859C176.059 227.859 178.499 218.047 172.652 210.216" stroke="black" stroke-width="1.58569" stroke-linecap="round" stroke-linejoin="round"/>
<path d="M115.092 253.911L140.12 268.843" stroke="black" stroke-width="1.58569" stroke-linecap="round" stroke-linejoin="round"/>
<path d="M287.992 113.937C287.426 117.821 287.208 121.729 287.34 125.634C287.929 128.567 289.776 131.283 292.61 133.382C292.61 133.382 284.826 142.809 266.95 140.346C259.184 139.273 258.421 134.098 259.501 132.901C260.581 131.703 267.546 127.822 267.546 113.937H287.992Z" fill="white"/>
<path d="M287.247 123.116C287.247 118.987 287.992 113.937 287.992 113.937H267.508C267.508 127.822 260.6 131.703 259.464 132.901C259.154 133.47 259.015 134.083 259.057 134.696C259.099 135.309 259.32 135.908 259.706 136.451C272.853 134.965 282.945 127.052 287.247 123.116Z" fill="white"/>
<path d="M287.992 113.937C287.426 117.821 287.208 121.729 287.34 125.634C287.929 128.567 289.776 131.283 292.61 133.382C292.61 133.382 284.826 142.809 266.95 140.346C259.184 139.273 258.421 134.098 259.501 132.901C260.581 131.703 267.546 127.822 267.546 113.937H287.992Z" stroke="black" stroke-width="1.58569" stroke-linecap="round" stroke-linejoin="round"/>
<path d="M255.18 80.1228C240.786 86.3708 226.82 102.417 252.499 105.17H260.506V80.1228H255.18Z" fill="black" stroke="black" stroke-width="1.58569" stroke-linecap="round" stroke-linejoin="round"/>
<path d="M260.004 83.9762C250.47 88.6003 248.44 95.2336 248.44 102.252C248.625 105.875 248.482 109.502 248.011 113.111C247.509 116.703 252.127 125.882 258.104 126.611C264.92 127.437 280.171 124.987 286.875 117.198C294.416 115.395 300.543 110.909 301.157 99.3072C301.884 85.2424 278.458 75.0309 260.004 83.9762Z" fill="white" stroke="black" stroke-width="1.58569" stroke-linecap="round" stroke-linejoin="round"/>
<path d="M254.195 80.6183C251.011 82.3936 255.089 94.5456 269.967 101.564C283.673 108.046 295.293 108.528 295.293 108.528C295.293 108.528 304.343 108.817 305.851 104.083C307.347 99.3482 306.639 94.3791 303.841 89.9788C301.043 85.5785 296.319 82.0043 290.432 79.8339C276.746 74.3428 260.042 77.3705 254.195 80.6183Z" fill="black" stroke="black" stroke-width="1.58569" stroke-linecap="round" stroke-linejoin="round"/>
<path d="M289.184 108.913C289.184 108.913 292.164 104.95 296.931 105.184C301.698 105.418 299.91 110.95 296.931 113.73C295.709 114.825 294.173 115.704 292.433 116.304C290.693 116.904 288.795 117.209 286.875 117.198C286.96 114.356 287.742 111.549 289.184 108.913Z" fill="white"/>
<path d="M289.184 108.913C289.184 108.913 292.164 104.95 296.931 105.184C301.698 105.418 299.91 110.95 296.931 113.73C295.709 114.825 294.173 115.704 292.433 116.304C290.693 116.904 288.795 117.209 286.875 117.198" stroke="black" stroke-width="1.58569" stroke-linecap="round" stroke-linejoin="round"/>
<path d="M270.412 106.574C270.321 106.864 270.121 107.129 269.836 107.339C269.55 107.549 269.19 107.695 268.797 107.76C268.404 107.825 267.994 107.808 267.614 107.709C267.234 107.61 266.9 107.434 266.649 107.2C266.399 106.967 266.242 106.687 266.198 106.391C266.153 106.095 266.223 105.796 266.398 105.528C266.573 105.26 266.847 105.034 267.188 104.875C267.529 104.717 267.924 104.633 268.327 104.633C268.948 104.692 269.514 104.928 269.903 105.29C270.293 105.653 270.476 106.113 270.412 106.574Z" fill="black"/>
<path d="M253.188 106.574C253.188 107.523 252.425 108.294 251.494 108.294C250.563 108.294 249.818 107.523 249.818 106.574C249.818 105.624 250.563 104.867 251.494 104.867C252.425 104.867 253.188 105.638 253.188 106.574Z" fill="black"/>
<path d="M256.354 114.501C256.354 114.501 254.957 113.923 255.683 112.203" stroke="black" stroke-width="1.58569" stroke-linecap="round" stroke-linejoin="round"/>
<path d="M255.907 119.29C258.779 119.838 261.828 119.532 264.398 118.436" stroke="#CD375F" stroke-width="1.58569" stroke-linecap="round" stroke-linejoin="round"/>
<path d="M264.937 101.675C264.937 101.675 267.134 100.821 272.386 101.675" stroke="black" stroke-width="1.58569" stroke-linecap="round" stroke-linejoin="round"/>
<path d="M253.19 101.289C252.228 100.924 251.162 100.73 250.08 100.725" stroke="black" stroke-width="1.58569" stroke-linecap="round" stroke-linejoin="round"/>
<path d="M247.975 124.203H255.908C256.717 124.175 257.526 124.266 258.287 124.472C259.048 124.677 259.746 124.993 260.339 125.401C261.55 126.268 264.511 127.892 265.2 128.304C265.889 128.717 267.062 129.144 266.913 129.571C266.38 130.055 265.64 130.391 264.814 130.524C263.988 130.656 263.126 130.577 262.369 130.3C259.911 129.571 258.645 128.924 257.919 128.662C256.913 128.515 255.89 128.446 254.865 128.456V136.507C254.865 137.098 249.632 141.42 248.701 141.819C247.246 142.088 245.724 142.088 244.269 141.819C243.617 141.667 239.148 140.787 239.148 140.787C239.148 140.787 230.47 162.586 228.683 167.21C226.895 171.834 218.031 175.261 212.594 174.834C207.156 174.407 206.412 167.568 207.007 164.444C207.603 161.32 231.793 133.506 233.078 132.406C234.362 131.305 246.783 124.203 247.975 124.203Z" fill="white" stroke="black" stroke-width="1.58569" stroke-linecap="round" stroke-linejoin="round"/>
<path d="M241.739 194.569H198.853L202.633 198.174H245.519L241.739 194.569Z" fill="#3BB77E" stroke="black" stroke-width="1.58569" stroke-linecap="round" stroke-linejoin="round"/>
<path d="M202.63 198.174H127.083L106.972 151.521H182.519L202.63 198.174Z" fill="white" stroke="black" stroke-width="1.58569" stroke-linecap="round" stroke-linejoin="round"/>
<path d="M152.725 180.201L149.857 179.031C143.023 176.279 142.278 174.242 141.999 173.526C141.798 173.146 141.73 172.735 141.801 172.33C141.871 171.926 142.078 171.54 142.403 171.21C142.727 170.88 143.158 170.616 143.657 170.441C144.156 170.266 144.706 170.186 145.257 170.21C146.072 170.233 146.872 170.377 147.611 170.632C148.35 170.888 149.012 171.249 149.559 171.696C149.82 171.234 150.268 170.843 150.841 170.577C151.415 170.311 152.086 170.182 152.762 170.21C154.061 170.26 155.308 170.605 156.331 171.199C157.354 171.793 158.104 172.606 158.479 173.526C158.758 174.297 159.503 176.279 154.754 179.031L152.725 180.201Z" fill="#3BB77E"/>
<path d="M286.874 171.077L283.894 186.353L236.987 192.752C236.987 192.752 228.086 184.729 227.36 184.247C226.633 183.765 219.073 182.871 218.049 182.871C214.499 183.833 211.077 185.036 207.826 186.463C206.541 187.151 204.418 192.284 204.101 192.821C203.785 193.358 203.487 194.624 205.014 194.624H214.455C215.367 194.624 224.082 199.523 225.795 200.514C227.508 201.505 229.631 202.812 238.086 201.505C245.273 201.739 283.708 201.587 289.555 201.505C295.402 201.422 299.872 200.541 301.417 196.468C302.963 192.394 310.43 171.187 310.43 171.187L286.874 171.077Z" fill="white"/>
<path d="M285.479 178.192C292.157 180.288 299.173 181.74 306.353 182.513L310.413 171.077H286.875L285.479 178.192Z" fill="white"/>
<path d="M286.874 171.077L283.894 186.353L236.987 192.752C236.987 192.752 228.086 184.729 227.36 184.247C226.633 183.765 219.073 182.871 218.049 182.871C214.499 183.833 211.077 185.036 207.826 186.463C206.541 187.151 204.418 192.284 204.101 192.821C203.785 193.358 203.487 194.624 205.014 194.624H214.455C215.367 194.624 224.082 199.523 225.795 200.514C227.508 201.505 229.631 202.812 238.086 201.505C245.273 201.739 283.708 201.587 289.555 201.505C295.402 201.422 299.872 200.541 301.417 196.468C302.963 192.394 310.43 171.187 310.43 171.187L286.874 171.077Z" stroke="black" stroke-width="1.58569" stroke-linecap="round" stroke-linejoin="round"/>
<path d="M291.251 157.177L289.519 174.38C298.195 174.906 306.914 174.906 315.589 174.38C315.589 174.38 317.712 157.177 313.634 145.617C310.655 145.81 292.406 142.328 291.251 157.177Z" fill="#CCCCCC"/>
<path d="M288.391 157.177L286.659 174.38C295.335 174.906 304.054 174.906 312.729 174.38C312.729 174.38 314.852 157.177 310.774 145.617" fill="#CCCCCC"/>
<path d="M288.391 157.177L286.659 174.38C295.335 174.906 304.054 174.906 312.729 174.38C312.729 174.38 314.852 157.177 310.774 145.617" stroke="black" stroke-width="1.58569" stroke-linecap="round" stroke-linejoin="round"/>
<path d="M319.835 149.567L315.18 152.415C315.18 152.415 335.421 158.278 328.122 174.118C320.115 191.445 284.734 197.514 250.619 206.542C216.504 215.57 191.03 232.236 181.906 255.521C173.358 277.21 186.654 298.899 211.533 301.775C217.64 301.17 323.969 288.013 323.969 288.013L351.752 186.532C352.963 159.2 319.835 149.567 319.835 149.567Z" fill="#A0616A"/>
<path d="M217.248 302.064C188.738 302.064 172.723 278.765 181.867 255.479C191.01 232.194 216.465 215.569 250.58 206.5C284.695 197.431 320.075 191.362 328.083 174.077C335.382 158.236 315.141 152.374 315.141 152.374" stroke="black" stroke-width="1.58569" stroke-linecap="round" stroke-linejoin="round"/>
<path d="M393.203 92.0269C393.206 93.8272 392.487 95.5878 391.136 97.0859C389.785 98.584 387.863 99.7521 385.613 100.442C383.363 101.132 380.887 101.314 378.497 100.963C376.108 100.613 373.913 99.746 372.19 98.473C370.468 97.1999 369.295 95.5778 368.821 93.8119C368.346 92.046 368.592 90.2158 369.526 88.5531C370.46 86.8903 372.04 85.4697 374.067 84.4712C376.094 83.4727 378.476 82.9411 380.912 82.9439C384.171 82.9475 387.294 83.9056 389.598 85.6082C391.901 87.3108 393.198 89.619 393.203 92.0269Z" fill="white" stroke="black" stroke-width="1.58569" stroke-linejoin="round"/>
<path d="M380.914 104.276V107.661" stroke="#F05322" stroke-width="1.58569" stroke-linecap="round" stroke-linejoin="round"/>
<path d="M389.199 102.638L391.471 105.569" stroke="#F05322" stroke-width="1.58569" stroke-linecap="round" stroke-linejoin="round"/>
<path d="M395.252 98.1514L399.218 99.8441" stroke="#F05322" stroke-width="1.58569" stroke-linecap="round" stroke-linejoin="round"/>
<path d="M397.466 92.0272H402.047" stroke="black" stroke-width="1.58569" stroke-linecap="round" stroke-linejoin="round"/>
<path d="M395.252 85.9029L399.218 84.2102" stroke="black" stroke-width="1.58569" stroke-linecap="round" stroke-linejoin="round"/>
<path d="M389.199 81.4305L391.471 78.4991" stroke="black" stroke-width="1.58569" stroke-linecap="round" stroke-linejoin="round"/>
<path d="M380.914 79.7789V76.4072" stroke="black" stroke-width="1.58569" stroke-linecap="round" stroke-linejoin="round"/>
<path d="M372.628 81.4305L370.337 78.4991" stroke="black" stroke-width="1.58569" stroke-linecap="round" stroke-linejoin="round"/>
<path d="M366.557 85.9029L362.591 84.2102" stroke="black" stroke-width="1.58569" stroke-linecap="round" stroke-linejoin="round"/>
<path d="M364.338 92.0272H359.757" stroke="black" stroke-width="1.58569" stroke-linecap="round" stroke-linejoin="round"/>
<path d="M366.557 98.1514L362.591 99.8441" stroke="#F05322" stroke-width="1.58569" stroke-linecap="round" stroke-linejoin="round"/>
<path d="M372.628 102.638L370.337 105.569" stroke="#F05322" stroke-width="1.58569" stroke-linecap="round" stroke-linejoin="round"/>
<path d="M380.914 0V70.9437" stroke="black" stroke-width="1.58569" stroke-linejoin="round"/>
<path d="M342.963 94.1191C335.793 94.1191 334.732 91.6281 340.598 88.6142L370.243 73.2557C373.436 71.7651 377.136 70.9739 380.913 70.9739C384.69 70.9739 388.39 71.7651 391.583 73.2557L421.21 88.6142C427.076 91.6557 426.014 94.1191 418.845 94.1191H342.963Z" fill="white" stroke="black" stroke-width="1.58569" stroke-linejoin="round"/>
<path d="M373.11 271.141C365.065 267.012 369.926 260.283 366.201 255.81C362.477 251.337 364.879 246.727 368.697 243.782C372.514 240.837 373.445 238.401 370.745 234.231C368.045 230.061 371.099 224.928 373.631 222.602C376.164 220.276 382.253 217.097 384.804 207.134C387.355 197.17 405.288 192.683 405.288 192.683C405.288 192.683 416.945 203.886 411.545 213.148C406.144 222.41 408.807 227.57 409.161 230.557C409.515 233.543 408.193 239.048 402.811 241.415C397.43 243.782 396.387 246.177 397.337 250.209C398.286 254.241 396.834 259.03 390.372 261.219C383.91 263.407 382.886 271.031 373.11 271.141Z" fill="#3BB77E" stroke="black" stroke-width="1.58569" stroke-linecap="round" stroke-linejoin="round"/>
<path d="M373.113 271.141L405.309 192.683" stroke="black" stroke-width="1.58569" stroke-linecap="round" stroke-linejoin="round"/>
<path d="M378.716 257.489L372.161 248.076" stroke="black" stroke-width="1.58569" stroke-linecap="round" stroke-linejoin="round"/>
<path d="M379.907 254.806L393.203 250.925" stroke="black" stroke-width="1.58569" stroke-linecap="round" stroke-linejoin="round"/>
<path d="M397.298 212.432L408.229 209.239" stroke="black" stroke-width="1.58569" stroke-linecap="round" stroke-linejoin="round"/>
<path d="M388.047 234.892L405.644 229.758" stroke="black" stroke-width="1.58569" stroke-linecap="round" stroke-linejoin="round"/>
<path d="M387.152 236.929L378.903 225.079" stroke="black" stroke-width="1.58569" stroke-linecap="round" stroke-linejoin="round"/>
<path d="M395.887 215.666L390.822 208.4" stroke="black" stroke-width="1.58569" stroke-linecap="round" stroke-linejoin="round"/>
<path d="M371.641 267.329C379.09 263.599 374.695 257.337 378.178 253.236C381.66 249.135 379.518 244.883 376.036 242.144C372.554 239.405 371.716 237.162 374.174 233.336C376.632 229.511 373.969 224.763 371.66 222.602C369.351 220.441 363.765 217.427 361.623 208.276C359.482 199.124 342.834 194.844 342.834 194.844C342.834 194.844 331.959 205.083 336.819 213.643C341.679 222.203 339.184 226.965 338.83 229.703C338.477 232.442 339.612 237.52 344.547 239.75C349.482 241.979 350.394 244.181 349.482 247.883C348.569 251.585 349.836 256.016 355.757 258.081C361.679 260.145 362.629 267.164 371.641 267.329Z" fill="#3BB77E" stroke="black" stroke-width="1.58569" stroke-linecap="round" stroke-linejoin="round"/>
<path d="M371.641 267.329L342.908 194.844" stroke="black" stroke-width="1.58569" stroke-linecap="round" stroke-linejoin="round"/>
<path d="M366.632 254.709L372.777 246.08" stroke="black" stroke-width="1.58569" stroke-linecap="round" stroke-linejoin="round"/>
<path d="M365.568 252.232L353.352 248.571" stroke="black" stroke-width="1.58569" stroke-linecap="round" stroke-linejoin="round"/>
<path d="M350.039 213.079L340.021 210.078" stroke="black" stroke-width="1.58569" stroke-linecap="round" stroke-linejoin="round"/>
<path d="M358.307 233.832L342.162 228.988" stroke="black" stroke-width="1.58569" stroke-linecap="round" stroke-linejoin="round"/>
<path d="M359.107 235.718L366.835 224.845" stroke="black" stroke-width="1.58569" stroke-linecap="round" stroke-linejoin="round"/>
<path d="M351.306 216.065L356.054 209.418" stroke="black" stroke-width="1.58569" stroke-linecap="round" stroke-linejoin="round"/>
<path d="M363.26 268.513C365.96 265.32 361.733 262.829 362.255 260.104C362.44 258.957 362.086 257.798 361.252 256.82C360.418 255.843 359.154 255.108 357.674 254.737C356.45 254.491 355.393 253.919 354.705 253.131C354.018 252.344 353.749 251.396 353.949 250.471C354.061 248.049 351.156 246.067 349.294 245.337C345.299 244.287 341.892 242.282 339.611 239.64C335.644 235.277 325.682 235.883 325.682 235.883C325.682 235.883 323.261 243.053 328.457 246.645C331.623 248.731 333.754 251.541 334.509 254.627C334.945 255.659 335.735 256.591 336.802 257.331C337.869 258.071 339.176 258.595 340.598 258.852C341.862 258.847 343.085 259.189 344.027 259.812C344.97 260.435 345.566 261.294 345.7 262.223C345.959 263.363 346.741 264.402 347.914 265.167C349.087 265.931 350.581 266.374 352.143 266.421C355.923 266.545 358.549 269.972 363.26 268.513Z" fill="#3BB77E" stroke="black" stroke-width="1.58569" stroke-linecap="round" stroke-linejoin="round"/>
<path d="M363.259 268.512L325.737 235.896" stroke="black" stroke-width="1.58569" stroke-linecap="round" stroke-linejoin="round"/>
<path d="M356.743 262.842L357.227 257.324" stroke="black" stroke-width="1.58569" stroke-linecap="round" stroke-linejoin="round"/>
<path d="M355.419 261.741L347.952 261.92" stroke="black" stroke-width="1.58569" stroke-linecap="round" stroke-linejoin="round"/>
<path d="M335.14 244.113L329.014 244.264" stroke="black" stroke-width="1.58569" stroke-linecap="round" stroke-linejoin="round"/>
<path d="M345.906 253.443L336.037 253.691" stroke="black" stroke-width="1.58569" stroke-linecap="round" stroke-linejoin="round"/>
<path d="M346.912 254.283L347.527 247.347" stroke="black" stroke-width="1.58569" stroke-linecap="round" stroke-linejoin="round"/>
<path d="M336.725 245.447L337.116 241.195" stroke="black" stroke-width="1.58569" stroke-linecap="round" stroke-linejoin="round"/>
<path d="M380.857 268.513C378.157 265.32 382.402 262.829 381.881 260.104C381.691 258.958 382.041 257.799 382.872 256.822C383.703 255.844 384.964 255.108 386.443 254.737C387.667 254.491 388.724 253.919 389.412 253.131C390.099 252.344 390.368 251.396 390.168 250.471C390.056 248.049 392.942 246.067 394.823 245.337C398.818 244.287 402.225 242.282 404.506 239.64C408.472 235.277 418.416 235.883 418.416 235.883C418.416 235.883 420.856 243.053 415.66 246.645C412.493 248.731 410.363 251.541 409.608 254.627C409.17 255.661 408.378 256.593 407.307 257.334C406.237 258.074 404.925 258.597 403.5 258.852C402.238 258.847 401.018 259.189 400.078 259.813C399.139 260.436 398.546 261.295 398.417 262.223C398.154 263.362 397.371 264.4 396.199 265.164C395.027 265.928 393.535 266.371 391.974 266.421C388.212 266.545 385.587 269.972 380.857 268.513Z" fill="#3BB77E" stroke="black" stroke-width="1.58569" stroke-linecap="round" stroke-linejoin="round"/>
<path d="M380.856 268.512L418.378 235.896" stroke="black" stroke-width="1.58569" stroke-linecap="round" stroke-linejoin="round"/>
<path d="M387.392 262.842L386.908 257.324" stroke="black" stroke-width="1.58569" stroke-linecap="round" stroke-linejoin="round"/>
<path d="M388.716 261.741L396.183 261.92" stroke="black" stroke-width="1.58569" stroke-linecap="round" stroke-linejoin="round"/>
<path d="M408.996 244.113L415.123 244.264" stroke="black" stroke-width="1.58569" stroke-linecap="round" stroke-linejoin="round"/>
<path d="M398.23 253.443L408.099 253.691" stroke="black" stroke-width="1.58569" stroke-linecap="round" stroke-linejoin="round"/>
<path d="M397.226 254.283L396.612 247.347" stroke="black" stroke-width="1.58569" stroke-linecap="round" stroke-linejoin="round"/>
<path d="M407.394 245.447L407.021 241.195" stroke="black" stroke-width="1.58569" stroke-linecap="round" stroke-linejoin="round"/>
<path d="M394.171 291.908H349.945L342.813 263.241H401.322L394.171 291.908Z" fill="#E7DBC4" stroke="black" stroke-width="1.58569" stroke-linecap="round" stroke-linejoin="round"/>
<path d="M347.766 283.045H342.217V304.762H347.766V283.045Z" fill="#E7DBC4" stroke="black" stroke-width="1.58569" stroke-linecap="round" stroke-linejoin="round"/>
<path d="M401.918 283.045H396.368V304.762H401.918V283.045Z" fill="#E7DBC4" stroke="black" stroke-width="1.58569" stroke-linecap="round" stroke-linejoin="round"/>
<path d="M396.369 291.908H347.767V295.693H396.369V291.908Z" fill="#E7DBC4" stroke="black" stroke-width="1.58569" stroke-linecap="round" stroke-linejoin="round"/>
<path d="M374.843 283.045H369.294V304.762H374.843V283.045Z" fill="#E7DBC4" stroke="black" stroke-width="1.58569" stroke-linecap="round" stroke-linejoin="round"/>
</svg>
