<svg width="410" height="348" viewBox="0 0 410 348" fill="none" xmlns="http://www.w3.org/2000/svg">
<g clip-path="url(#clip0_1_486)">
<g filter="url(#filter0_d_1_486)">
<path d="M286.064 43.1652L285.279 43.8315L339.123 85.2754L339.908 84.609L286.064 43.1652Z" fill="#E6E6E6"/>
<path d="M286.057 43.8129L286.079 43.7938L339.131 84.6277L339.108 84.6468L286.057 43.8129Z" stroke="black"/>
</g>
<g filter="url(#filter1_d_1_486)">
<path d="M339.994 80.115L338.857 80.1706L339.2 84.6984L333.589 84.6439L333.577 85.5642L340.411 85.6297L339.994 80.115Z" fill="#E6E6E6"/>
<path d="M339.871 85.1245L339.734 85.1232L339.699 84.6606L339.394 80.6449L339.532 80.6382L339.871 85.1245Z" stroke="black"/>
</g>
<g filter="url(#filter2_d_1_486)">
<path d="M291.612 42.8756L291.599 43.7959L285.989 43.7414L286.332 48.2692L285.194 48.3248L284.779 42.8096L291.612 42.8756Z" fill="#E6E6E6"/>
<path d="M285.49 43.7792L285.794 47.7949L285.656 47.8016L285.318 43.3148L285.455 43.3161L285.49 43.7792Z" stroke="black"/>
</g>
<g filter="url(#filter3_d_1_486)">
<path d="M312.594 69.2802C316.05 69.2802 318.852 67.0148 318.852 64.2202C318.852 61.4257 316.05 59.1603 312.594 59.1603C309.137 59.1603 306.335 61.4257 306.335 64.2202C306.335 67.0148 309.137 69.2802 312.594 69.2802Z" fill="#E6E6E6"/>
<path d="M318.352 64.2202C318.352 66.6446 315.879 68.7802 312.594 68.7802C309.309 68.7802 306.835 66.6446 306.835 64.2202C306.835 61.7959 309.309 59.6603 312.594 59.6603C315.879 59.6603 318.352 61.7959 318.352 64.2202Z" stroke="black"/>
</g>
<g filter="url(#filter4_d_1_486)">
<path d="M125.392 43.1651L71.5486 84.609L72.3333 85.2754L126.177 43.8315L125.392 43.1651Z" fill="#E6E6E6"/>
<path d="M72.3259 84.6277L125.377 43.7938L125.4 43.8129L72.3484 84.6468L72.3259 84.6277Z" stroke="black"/>
</g>
<g filter="url(#filter5_d_1_486)">
<path d="M71.0463 85.6297L77.8804 85.5642L77.8675 84.6439L72.2568 84.6984L72.5999 80.1706L71.4629 80.115L71.0463 85.6297Z" fill="#E6E6E6"/>
<path d="M71.7582 84.6606L71.7232 85.1232L71.5859 85.1245L71.9248 80.6382L72.0625 80.6449L71.7582 84.6606Z" stroke="black"/>
</g>
<g filter="url(#filter6_d_1_486)">
<path d="M126.678 42.8096L126.262 48.3248L125.125 48.2692L125.468 43.7414L119.857 43.7959L119.845 42.8756L126.678 42.8096Z" fill="#E6E6E6"/>
<path d="M125.8 47.8016L125.663 47.7949L125.966 43.7791L126.001 43.3161L126.139 43.3148L125.8 47.8016Z" stroke="black"/>
</g>
<g filter="url(#filter7_d_1_486)">
<path d="M98.8628 69.2802C102.319 69.2802 105.122 67.0148 105.122 64.2202C105.122 61.4257 102.319 59.1603 98.8628 59.1603C95.4062 59.1603 92.604 61.4257 92.604 64.2202C92.604 67.0148 95.4062 69.2802 98.8628 69.2802Z" fill="#E6E6E6"/>
<path d="M104.622 64.2202C104.622 66.6446 102.148 68.7802 98.8628 68.7802C95.5778 68.7802 93.104 66.6446 93.104 64.2202C93.104 61.7959 95.5778 59.6603 98.8628 59.6603C102.148 59.6603 104.622 61.7959 104.622 64.2202Z" stroke="black"/>
</g>
<path d="M252.385 105.743H157.934C156.576 105.742 155.275 105.305 154.315 104.529C153.355 103.753 152.815 102.701 152.813 101.603V5.00398C152.815 3.90637 153.355 2.85409 154.315 2.07797C155.275 1.30184 156.576 0.865264 157.934 0.864014H252.385C253.742 0.865264 255.044 1.30184 256.004 2.07797C256.964 2.85409 257.504 3.90637 257.505 5.00398V101.603C257.504 102.701 256.964 103.753 256.004 104.529C255.044 105.305 253.742 105.742 252.385 105.743ZM157.934 1.78401C156.878 1.78497 155.866 2.12452 155.119 2.72818C154.372 3.33183 153.952 4.15028 153.951 5.00398V101.603C153.952 102.457 154.372 103.275 155.119 103.879C155.866 104.483 156.878 104.822 157.934 104.823H252.385C253.44 104.822 254.453 104.483 255.2 103.879C255.946 103.275 256.366 102.457 256.367 101.603V5.00398C256.366 4.15028 255.946 3.33183 255.2 2.72818C254.453 2.12452 253.44 1.78497 252.385 1.78401H157.934Z" fill="#3F3D56"/>
<path d="M197.302 47.2969H176.512C175.833 47.2963 175.182 47.078 174.702 46.6899C174.222 46.3019 173.952 45.7757 173.952 45.2269V25.392C173.952 24.8432 174.222 24.317 174.702 23.929C175.182 23.5409 175.833 23.3226 176.512 23.322H197.302C197.981 23.3226 198.632 23.5409 199.112 23.929C199.592 24.317 199.862 24.8432 199.863 25.392V45.2269C199.862 45.7757 199.592 46.3018 199.112 46.6899C198.632 47.078 197.981 47.2963 197.302 47.2969Z" fill="#08CE84"/>
<path d="M237.7 56.4968H216.909C216.231 56.4962 215.58 56.2779 215.1 55.8899C214.62 55.5018 214.35 54.9756 214.349 54.4268V34.592C214.35 34.0431 214.62 33.517 215.1 33.1289C215.58 32.7409 216.231 32.5226 216.909 32.522H237.7C238.379 32.5226 239.029 32.7409 239.509 33.1289C239.989 33.517 240.259 34.0431 240.26 34.592V54.4268C240.259 54.9756 239.989 55.5018 239.509 55.8899C239.029 56.2779 238.379 56.4962 237.7 56.4968Z" fill="#CCCCCC"/>
<path d="M205.268 84.5565H184.478C183.799 84.5559 183.148 84.3376 182.668 83.9496C182.188 83.5615 181.918 83.0353 181.917 82.4865V62.6517C181.918 62.1028 182.188 61.5767 182.668 61.1886C183.148 60.8006 183.799 60.5823 184.478 60.5817H205.268C205.947 60.5823 206.598 60.8006 207.078 61.1886C207.558 61.5767 207.828 62.1028 207.829 62.6517V82.4865C207.828 83.0353 207.558 83.5615 207.078 83.9496C206.598 84.3376 205.947 84.5559 205.268 84.5565Z" fill="#D1D1D1"/>
<path d="M404.832 205.071H310.381C309.024 205.07 307.722 204.633 306.762 203.857C305.802 203.081 305.262 202.029 305.26 200.931V104.332C305.262 103.234 305.802 102.182 306.762 101.406C307.722 100.63 309.024 100.193 310.381 100.192H404.832C406.189 100.193 407.491 100.63 408.451 101.406C409.411 102.182 409.951 103.234 409.952 104.332V200.931C409.951 202.029 409.411 203.081 408.451 203.857C407.491 204.633 406.189 205.07 404.832 205.071ZM310.381 101.112C309.325 101.113 308.313 101.452 307.566 102.056C306.82 102.66 306.4 103.478 306.398 104.332V200.931C306.4 201.785 306.82 202.603 307.566 203.207C308.313 203.81 309.325 204.15 310.381 204.151H404.832C405.888 204.15 406.9 203.81 407.647 203.207C408.393 202.603 408.813 201.785 408.814 200.931V104.332C408.813 103.478 408.393 102.66 407.647 102.056C406.9 101.452 405.888 101.113 404.832 101.112H310.381Z" fill="#3F3D56"/>
<path d="M373.822 121.582H341.391C340.787 121.582 340.208 121.388 339.781 121.043C339.355 120.698 339.115 120.23 339.115 119.742C339.115 119.254 339.355 118.786 339.781 118.441C340.208 118.095 340.787 117.902 341.391 117.902H373.822C374.426 117.902 375.005 118.095 375.432 118.441C375.859 118.786 376.098 119.254 376.098 119.742C376.098 120.23 375.859 120.698 375.432 121.043C375.005 121.388 374.426 121.582 373.822 121.582Z" fill="#08CE84"/>
<path d="M389.754 139.061H325.459C325.16 139.062 324.864 139.015 324.587 138.922C324.311 138.83 324.059 138.695 323.847 138.524C323.636 138.353 323.468 138.15 323.353 137.926C323.238 137.703 323.179 137.463 323.179 137.221C323.179 136.98 323.238 136.74 323.353 136.517C323.468 136.293 323.636 136.09 323.847 135.919C324.059 135.748 324.311 135.613 324.587 135.521C324.864 135.428 325.16 135.381 325.459 135.381H389.754C390.053 135.381 390.349 135.428 390.626 135.521C390.903 135.613 391.154 135.748 391.366 135.919C391.577 136.09 391.745 136.293 391.86 136.517C391.975 136.74 392.034 136.98 392.034 137.221C392.034 137.463 391.975 137.703 391.86 137.926C391.745 138.15 391.577 138.353 391.366 138.524C391.154 138.695 390.903 138.83 390.626 138.922C390.349 139.015 390.053 139.062 389.754 139.061Z" fill="#CCCCCC"/>
<path d="M389.754 148.721H325.459C325.16 148.722 324.864 148.675 324.587 148.582C324.311 148.49 324.059 148.355 323.847 148.184C323.636 148.013 323.468 147.81 323.353 147.586C323.238 147.363 323.179 147.123 323.179 146.881C323.179 146.64 323.238 146.4 323.353 146.177C323.468 145.953 323.636 145.75 323.847 145.579C324.059 145.408 324.311 145.273 324.587 145.181C324.864 145.088 325.16 145.041 325.459 145.042H389.754C390.053 145.041 390.349 145.088 390.626 145.181C390.903 145.273 391.154 145.408 391.366 145.579C391.577 145.75 391.745 145.953 391.86 146.177C391.975 146.4 392.034 146.64 392.034 146.881C392.034 147.123 391.975 147.363 391.86 147.586C391.745 147.81 391.577 148.013 391.366 148.184C391.154 148.355 390.903 148.49 390.626 148.582C390.349 148.675 390.053 148.722 389.754 148.721Z" fill="#CCCCCC"/>
<path d="M389.754 158.381H325.459C325.16 158.382 324.864 158.335 324.587 158.242C324.311 158.15 324.059 158.014 323.847 157.844C323.636 157.673 323.468 157.47 323.353 157.246C323.238 157.023 323.179 156.783 323.179 156.541C323.179 156.3 323.238 156.06 323.353 155.837C323.468 155.613 323.636 155.41 323.847 155.239C324.059 155.068 324.311 154.933 324.587 154.841C324.864 154.748 325.16 154.701 325.459 154.701H389.754C390.053 154.701 390.349 154.748 390.626 154.841C390.903 154.933 391.154 155.068 391.366 155.239C391.577 155.41 391.745 155.613 391.86 155.837C391.975 156.06 392.034 156.3 392.034 156.541C392.034 156.783 391.975 157.023 391.86 157.246C391.745 157.47 391.577 157.673 391.366 157.844C391.154 158.014 390.903 158.15 390.626 158.242C390.349 158.335 390.053 158.382 389.754 158.381Z" fill="#CCCCCC"/>
<path d="M389.754 168.041H325.459C325.16 168.042 324.864 167.994 324.587 167.902C324.311 167.81 324.059 167.674 323.847 167.504C323.636 167.333 323.468 167.13 323.353 166.906C323.238 166.683 323.179 166.443 323.179 166.201C323.179 165.959 323.238 165.72 323.353 165.496C323.468 165.273 323.636 165.07 323.847 164.899C324.059 164.728 324.311 164.593 324.587 164.5C324.864 164.408 325.16 164.361 325.459 164.361H389.754C390.053 164.361 390.349 164.408 390.626 164.5C390.903 164.593 391.154 164.728 391.366 164.899C391.577 165.07 391.745 165.273 391.86 165.496C391.975 165.72 392.034 165.959 392.034 166.201C392.034 166.443 391.975 166.683 391.86 166.906C391.745 167.13 391.577 167.333 391.366 167.504C391.154 167.674 390.903 167.81 390.626 167.902C390.349 167.994 390.053 168.042 389.754 168.041Z" fill="#CCCCCC"/>
<path d="M389.754 177.701H325.459C325.16 177.702 324.864 177.654 324.587 177.562C324.311 177.47 324.059 177.334 323.847 177.163C323.636 176.993 323.468 176.79 323.353 176.566C323.238 176.343 323.179 176.103 323.179 175.861C323.179 175.619 323.238 175.38 323.353 175.156C323.468 174.933 323.636 174.73 323.847 174.559C324.059 174.388 324.311 174.253 324.587 174.16C324.864 174.068 325.16 174.021 325.459 174.021H389.754C390.053 174.021 390.349 174.068 390.626 174.16C390.903 174.253 391.154 174.388 391.366 174.559C391.577 174.73 391.745 174.933 391.86 175.156C391.975 175.38 392.034 175.619 392.034 175.861C392.034 176.103 391.975 176.343 391.86 176.566C391.745 176.79 391.577 176.993 391.366 177.163C391.154 177.334 390.903 177.47 390.626 177.562C390.349 177.654 390.053 177.702 389.754 177.701Z" fill="#CCCCCC"/>
<path d="M389.754 187.361H325.459C325.16 187.362 324.864 187.314 324.587 187.222C324.311 187.13 324.059 186.994 323.847 186.823C323.636 186.652 323.468 186.449 323.353 186.226C323.238 186.003 323.179 185.763 323.179 185.521C323.179 185.279 323.238 185.04 323.353 184.816C323.468 184.593 323.636 184.39 323.847 184.219C324.059 184.048 324.311 183.913 324.587 183.82C324.864 183.728 325.16 183.681 325.459 183.681H389.754C390.053 183.681 390.349 183.728 390.626 183.82C390.903 183.913 391.154 184.048 391.366 184.219C391.577 184.39 391.745 184.593 391.86 184.816C391.975 185.04 392.034 185.279 392.034 185.521C392.034 185.763 391.975 186.003 391.86 186.226C391.745 186.449 391.577 186.652 391.366 186.823C391.154 186.994 390.903 187.13 390.626 187.222C390.349 187.314 390.053 187.362 389.754 187.361Z" fill="#CCCCCC"/>
<path d="M99.9373 205.071H5.48689C4.12924 205.07 2.82764 204.633 1.86764 203.857C0.907637 203.081 0.367633 202.029 0.366089 200.931V104.332C0.367633 103.234 0.907637 102.182 1.86764 101.406C2.82764 100.63 4.12924 100.193 5.48689 100.192H99.9373C101.295 100.193 102.596 100.63 103.556 101.406C104.516 102.182 105.057 103.234 105.058 104.332V200.931C105.057 202.029 104.516 203.081 103.556 203.857C102.596 204.633 101.295 205.07 99.9373 205.071ZM5.48689 101.112C4.43094 101.113 3.41858 101.452 2.67191 102.056C1.92523 102.66 1.50522 103.478 1.50404 104.332V200.931C1.50522 201.785 1.92523 202.603 2.67191 203.207C3.41858 203.81 4.43094 204.15 5.48689 204.151H99.9373C100.993 204.15 102.006 203.81 102.752 203.207C103.499 202.603 103.919 201.785 103.92 200.931V104.332C103.919 103.478 103.499 102.66 102.752 102.056C102.006 101.452 100.993 101.113 99.9373 101.112H5.48689Z" fill="#3F3D56"/>
<path d="M84.9578 122.999H56.5089C55.9053 122.999 55.3264 122.805 54.8996 122.46C54.4728 122.115 54.233 121.647 54.233 121.159C54.233 120.671 54.4728 120.203 54.8996 119.858C55.3264 119.513 55.9053 119.319 56.5089 119.319H84.9578C85.5615 119.319 86.1404 119.513 86.5672 119.858C86.994 120.203 87.2338 120.671 87.2338 121.159C87.2338 121.647 86.994 122.115 86.5672 122.46C86.1404 122.805 85.5615 122.999 84.9578 122.999Z" fill="#3F3D56"/>
<path d="M84.9578 132.659H56.5089C55.9053 132.659 55.3264 132.465 54.8996 132.12C54.4728 131.775 54.233 131.307 54.233 130.819C54.233 130.331 54.4728 129.863 54.8996 129.518C55.3264 129.173 55.9053 128.979 56.5089 128.979H84.9578C85.5615 128.979 86.1404 129.173 86.5672 129.518C86.994 129.863 87.2338 130.331 87.2338 130.819C87.2338 131.307 86.994 131.775 86.5672 132.12C86.1404 132.465 85.5615 132.659 84.9578 132.659Z" fill="#3F3D56"/>
<path d="M41.9118 138.159H21.1213C20.4425 138.159 19.7917 137.94 19.3117 137.552C18.8317 137.164 18.5617 136.638 18.5609 136.089V116.254C18.5617 115.706 18.8317 115.179 19.3117 114.791C19.7917 114.403 20.4425 114.185 21.1213 114.184H41.9118C42.5906 114.185 43.2414 114.403 43.7214 114.791C44.2014 115.179 44.4714 115.706 44.4722 116.254V136.089C44.4714 136.638 44.2014 137.164 43.7214 137.552C43.2414 137.94 42.5906 138.159 41.9118 138.159Z" fill="#08CE84"/>
<path d="M84.7608 152.439H20.4662C20.167 152.439 19.8707 152.392 19.5941 152.3C19.3175 152.207 19.0661 152.072 18.8544 151.901C18.6426 151.73 18.4746 151.527 18.36 151.304C18.2454 151.08 18.1864 150.841 18.1864 150.599C18.1864 150.357 18.2454 150.117 18.36 149.894C18.4746 149.67 18.6426 149.467 18.8544 149.297C19.0661 149.126 19.3175 148.99 19.5941 148.898C19.8707 148.806 20.167 148.758 20.4662 148.759H84.7608C85.06 148.758 85.3564 148.806 85.6329 148.898C85.9095 148.99 86.1609 149.126 86.3726 149.297C86.5844 149.467 86.7524 149.67 86.867 149.894C86.9816 150.117 87.0406 150.357 87.0406 150.599C87.0406 150.841 86.9816 151.08 86.867 151.304C86.7524 151.527 86.5844 151.73 86.3726 151.901C86.1609 152.072 85.9095 152.207 85.6329 152.3C85.3564 152.392 85.06 152.439 84.7608 152.439Z" fill="#CCCCCC"/>
<path d="M84.7608 162.099H20.4662C20.167 162.099 19.8707 162.052 19.5941 161.96C19.3175 161.867 19.0661 161.732 18.8544 161.561C18.6426 161.39 18.4746 161.187 18.36 160.964C18.2454 160.74 18.1864 160.501 18.1864 160.259C18.1864 160.017 18.2454 159.777 18.36 159.554C18.4746 159.33 18.6426 159.127 18.8544 158.956C19.0661 158.786 19.3175 158.65 19.5941 158.558C19.8707 158.466 20.167 158.418 20.4662 158.419H84.7608C85.06 158.418 85.3564 158.466 85.6329 158.558C85.9095 158.65 86.1609 158.786 86.3726 158.956C86.5844 159.127 86.7524 159.33 86.867 159.554C86.9816 159.777 87.0406 160.017 87.0406 160.259C87.0406 160.501 86.9816 160.74 86.867 160.964C86.7524 161.187 86.5844 161.39 86.3726 161.561C86.1609 161.732 85.9095 161.867 85.6329 161.96C85.3564 162.052 85.06 162.099 84.7608 162.099Z" fill="#CCCCCC"/>
<path d="M84.7608 171.759H20.4662C20.167 171.759 19.8707 171.712 19.5941 171.619C19.3175 171.527 19.0661 171.392 18.8544 171.221C18.6426 171.05 18.4746 170.847 18.36 170.623C18.2454 170.4 18.1864 170.161 18.1864 169.919C18.1864 169.677 18.2454 169.437 18.36 169.214C18.4746 168.99 18.6426 168.787 18.8544 168.616C19.0661 168.446 19.3175 168.31 19.5941 168.218C19.8707 168.125 20.167 168.078 20.4662 168.079H84.7608C85.06 168.078 85.3564 168.125 85.6329 168.218C85.9095 168.31 86.1609 168.446 86.3726 168.616C86.5844 168.787 86.7524 168.99 86.867 169.214C86.9816 169.437 87.0406 169.677 87.0406 169.919C87.0406 170.161 86.9816 170.4 86.867 170.623C86.7524 170.847 86.5844 171.05 86.3726 171.221C86.1609 171.392 85.9095 171.527 85.6329 171.619C85.3564 171.712 85.06 171.759 84.7608 171.759Z" fill="#CCCCCC"/>
<path d="M84.7608 181.418H20.4662C20.167 181.419 19.8707 181.372 19.5941 181.279C19.3175 181.187 19.0661 181.052 18.8544 180.881C18.6426 180.71 18.4746 180.507 18.36 180.283C18.2454 180.06 18.1864 179.82 18.1864 179.579C18.1864 179.337 18.2454 179.097 18.36 178.874C18.4746 178.65 18.6426 178.447 18.8544 178.276C19.0661 178.105 19.3175 177.97 19.5941 177.878C19.8707 177.785 20.167 177.738 20.4662 177.739H84.7608C85.06 177.738 85.3564 177.785 85.6329 177.878C85.9095 177.97 86.1609 178.105 86.3726 178.276C86.5844 178.447 86.7524 178.65 86.867 178.874C86.9816 179.097 87.0406 179.337 87.0406 179.579C87.0406 179.82 86.9816 180.06 86.867 180.283C86.7524 180.507 86.5844 180.71 86.3726 180.881C86.1609 181.052 85.9095 181.187 85.6329 181.279C85.3564 181.372 85.06 181.419 84.7608 181.418Z" fill="#CCCCCC"/>
<path d="M84.7608 191.078H20.4662C20.167 191.079 19.8707 191.032 19.5941 190.939C19.3175 190.847 19.0661 190.712 18.8544 190.541C18.6426 190.37 18.4746 190.167 18.36 189.943C18.2454 189.72 18.1864 189.48 18.1864 189.238C18.1864 188.997 18.2454 188.757 18.36 188.534C18.4746 188.31 18.6426 188.107 18.8544 187.936C19.0661 187.765 19.3175 187.63 19.5941 187.538C19.8707 187.445 20.167 187.398 20.4662 187.398H84.7608C85.06 187.398 85.3564 187.445 85.6329 187.538C85.9095 187.63 86.1609 187.765 86.3726 187.936C86.5844 188.107 86.7524 188.31 86.867 188.534C86.9816 188.757 87.0406 188.997 87.0406 189.238C87.0406 189.48 86.9816 189.72 86.867 189.943C86.7524 190.167 86.5844 190.37 86.3726 190.541C86.1609 190.712 85.9095 190.847 85.6329 190.939C85.3564 191.032 85.06 191.079 84.7608 191.078Z" fill="#CCCCCC"/>
<g filter="url(#filter8_d_1_486)">
<path d="M135.643 261.059V241.224C135.644 240.676 135.914 240.149 136.394 239.761C136.874 239.373 137.525 239.155 138.204 239.154H158.994C159.673 239.155 160.324 239.373 160.804 239.761C161.284 240.149 161.554 240.676 161.555 241.224V261.059C161.554 261.608 161.284 262.134 160.804 262.522C160.324 262.91 159.673 263.129 158.994 263.129H138.204C137.525 263.129 136.874 262.91 136.394 262.522C135.914 262.134 135.644 261.608 135.643 261.059V261.059Z" fill="#E6E6E6"/>
<path d="M136.143 261.059V241.225C136.144 240.847 136.329 240.457 136.709 240.15C137.091 239.841 137.627 239.655 138.204 239.654H158.994C159.571 239.655 160.107 239.841 160.49 240.15C160.869 240.457 161.054 240.847 161.055 241.225V261.059C161.054 261.437 160.869 261.827 160.49 262.133C160.107 262.442 159.571 262.629 158.994 262.629H138.204C137.628 262.629 137.091 262.442 136.709 262.133C136.329 261.827 136.144 261.437 136.143 261.059Z" stroke="black"/>
</g>
<path d="M143.133 254.454V234.619C143.133 234.07 143.403 233.544 143.883 233.156C144.363 232.768 145.014 232.55 145.693 232.549H166.483C167.162 232.55 167.813 232.768 168.293 233.156C168.773 233.544 169.043 234.07 169.044 234.619V254.454C169.043 255.003 168.773 255.529 168.293 255.917C167.813 256.305 167.162 256.524 166.483 256.524H145.693C145.014 256.524 144.363 256.305 143.883 255.917C143.403 255.529 143.133 255.003 143.133 254.454Z" fill="#08CE84"/>
<path d="M236.331 248.108C235.548 247.742 234.875 247.243 234.357 246.644C233.839 246.045 233.49 245.362 233.335 244.642C233.179 243.923 233.22 243.184 233.456 242.479C233.691 241.774 234.115 241.119 234.698 240.561L228.253 202.478L241.678 203.011L243.785 240.156C244.881 241.01 245.551 242.158 245.669 243.384C245.788 244.61 245.345 245.829 244.426 246.809C243.508 247.789 242.176 248.463 240.684 248.702C239.192 248.941 237.643 248.73 236.331 248.108V248.108Z" fill="#A0616A"/>
<path d="M243.52 203.518C243.245 203.78 242.892 203.982 242.495 204.104L230.431 207.826C229.825 208.013 229.154 208.005 228.555 207.804C227.956 207.603 227.475 207.224 227.212 206.745L216.525 187.329C215.499 185.528 215.324 183.485 216.034 181.587C216.559 180.232 217.526 179.017 218.833 178.07C220.141 177.122 221.74 176.477 223.463 176.203C224.788 175.982 226.156 175.998 227.473 176.249C229.051 176.533 230.516 177.131 231.736 177.988C232.956 178.846 233.893 179.935 234.461 181.159L243.962 201.464C244.122 201.807 244.165 202.179 244.088 202.54C244.01 202.901 243.814 203.239 243.52 203.518Z" fill="#CCCCCC"/>
<path d="M180.654 341.058H172.307L169.281 314.907L180.656 315.031L180.654 341.058Z" fill="#A0616A"/>
<path d="M166.345 339.13H182.443V347.324H156.21C156.21 346.248 156.472 345.183 156.982 344.188C157.491 343.194 158.238 342.291 159.179 341.53C160.12 340.769 161.237 340.166 162.467 339.754C163.697 339.342 165.014 339.13 166.345 339.13Z" fill="#2F2E41"/>
<path d="M219.461 341.058H211.115L207.144 315.03L219.463 315.031L219.461 341.058Z" fill="#A0616A"/>
<path d="M205.153 339.13H221.25V347.324H195.017C195.017 346.248 195.279 345.183 195.789 344.188C196.298 343.194 197.045 342.291 197.986 341.53C198.927 340.769 200.044 340.166 201.274 339.754C202.504 339.342 203.822 339.13 205.153 339.13Z" fill="#2F2E41"/>
<path d="M220.511 331.798L207.402 331.013C206.656 330.968 205.957 330.704 205.435 330.271C204.913 329.838 204.605 329.266 204.568 328.663L201.645 279.823C201.617 279.355 201.378 278.91 200.974 278.574C200.569 278.237 200.026 278.032 199.448 277.996C198.869 277.96 198.294 278.096 197.83 278.378C197.367 278.66 197.047 279.07 196.93 279.53L184.736 327.641C184.585 328.233 184.172 328.76 183.574 329.123C182.977 329.486 182.236 329.66 181.49 329.612L169.64 328.846C169.234 328.82 168.838 328.728 168.476 328.577C168.115 328.425 167.794 328.217 167.533 327.964C167.271 327.712 167.075 327.419 166.956 327.104C166.836 326.789 166.795 326.459 166.836 326.131L177.83 237.25C177.873 236.903 178.006 236.567 178.221 236.264C178.436 235.961 178.727 235.699 179.077 235.493C179.426 235.288 179.825 235.145 180.248 235.073C180.67 235.001 181.107 235.002 181.529 235.077L223.336 242.424C224.028 242.547 224.647 242.86 225.087 243.309C225.526 243.759 225.76 244.318 225.748 244.891L223.801 329.374C223.786 330.022 223.457 330.639 222.886 331.093C222.315 331.548 221.546 331.803 220.745 331.805C220.667 331.805 220.589 331.802 220.511 331.798Z" fill="#737375"/>
<path d="M209.042 162.935C218.278 162.935 225.764 156.883 225.764 149.416C225.764 141.95 218.278 135.897 209.042 135.897C199.807 135.897 192.321 141.95 192.321 149.416C192.321 156.883 199.807 162.935 209.042 162.935Z" fill="#A0616A"/>
<path d="M183.097 244.104C181.49 242.939 180.213 241.505 179.356 239.903C178.499 238.3 178.081 236.566 178.132 234.821C178.132 215.39 198.935 171.98 199.587 170.626C199.651 170.299 200.2 170.158 203.079 168.586C205.961 167.012 210.116 166.77 215.429 167.867C215.969 167.979 216.461 168.208 216.851 168.53C217.241 168.852 217.515 169.255 217.642 169.694L218.63 170.848C218.716 171.141 218.886 171.413 219.126 171.643C219.366 171.873 219.669 172.055 220.012 172.173C224.296 173.632 237.916 180.362 233.275 205.689C228.964 229.216 227.215 243.052 226.662 247.909C226.597 248.485 226.284 249.025 225.778 249.434C225.271 249.843 224.603 250.095 223.89 250.147C221.79 250.299 218.184 250.501 213.889 250.501C203.935 250.501 190.281 249.415 183.097 244.104Z" fill="#CCCCCC"/>
<path d="M163.116 236.906C162.719 236.25 162.504 235.532 162.486 234.801C162.469 234.071 162.651 233.346 163.017 232.679C163.384 232.011 163.927 231.417 164.609 230.937C165.29 230.458 166.094 230.105 166.962 229.904L187.859 195.378L198.639 201.868L174.787 233.662C175.108 234.864 174.873 236.119 174.127 237.191C173.38 238.262 172.172 239.075 170.734 239.475C169.295 239.875 167.725 239.834 166.321 239.361C164.917 238.887 163.777 238.014 163.116 236.906Z" fill="#A0616A"/>
<path d="M199.819 203.119C199.41 203.213 198.979 203.221 198.564 203.144L185.981 200.8C185.349 200.683 184.797 200.374 184.439 199.937C184.08 199.5 183.942 198.969 184.053 198.452L188.562 177.515C188.951 175.557 190.214 173.783 192.112 172.526C193.481 171.638 195.122 171.064 196.86 170.867C198.599 170.669 200.372 170.854 201.991 171.402C203.244 171.816 204.369 172.445 205.29 173.247C206.404 174.194 207.208 175.35 207.631 176.612C208.053 177.873 208.079 179.2 207.707 180.472L201.602 201.613C201.498 201.97 201.278 202.298 200.965 202.563C200.651 202.827 200.256 203.02 199.819 203.119Z" fill="#CCCCCC"/>
<path d="M205.127 161.631C204.313 160.96 203.713 160.139 203.376 159.24C203.039 158.34 202.977 157.388 203.194 156.464C203.777 153.999 204.12 152.386 204.185 151.799C204.407 149.791 201.896 148.166 199.412 147.907C199.316 147.897 199.235 147.89 199.168 147.886C199.231 147.936 199.299 147.987 199.359 148.033C199.831 148.391 200.418 148.837 200.278 149.297C200.194 149.574 199.881 149.771 199.321 149.898C195.436 150.777 192.444 149.97 189.904 147.357C189.191 146.614 188.7 145.748 188.471 144.826C187.562 141.218 189.985 138.142 192.179 136.198C193.988 134.594 196.92 132.648 200.617 132.481C203.493 132.351 206.912 133.689 207.935 136.1C208.418 135.522 209.061 135.042 209.812 134.699C210.564 134.357 211.404 134.16 212.266 134.126C214.229 134.092 216.161 134.526 217.821 135.375C225.929 139.13 229.413 148.075 225.43 154.908C222.924 159.207 217.496 162.406 211.262 163.259C210.872 163.313 210.477 163.34 210.081 163.34C209.156 163.339 208.24 163.187 207.389 162.893C206.538 162.6 205.769 162.17 205.127 161.631Z" fill="#2F2E41"/>
<path d="M126.713 347.631H259.475C259.656 347.631 259.829 347.573 259.956 347.469C260.084 347.366 260.156 347.226 260.156 347.08C260.156 346.934 260.084 346.794 259.956 346.691C259.829 346.588 259.656 346.53 259.475 346.53H126.713C126.533 346.53 126.36 346.588 126.232 346.691C126.104 346.794 126.033 346.934 126.033 347.08C126.033 347.226 126.104 347.366 126.232 347.469C126.36 347.573 126.533 347.631 126.713 347.631Z" fill="#3F3D56"/>
</g>
<defs>
<filter id="filter0_d_1_486" x="281.279" y="43.1652" width="62.6285" height="50.1102" filterUnits="userSpaceOnUse" color-interpolation-filters="sRGB">
<feFlood flood-opacity="0" result="BackgroundImageFix"/>
<feColorMatrix in="SourceAlpha" type="matrix" values="0 0 0 0 0 0 0 0 0 0 0 0 0 0 0 0 0 0 127 0" result="hardAlpha"/>
<feOffset dy="4"/>
<feGaussianBlur stdDeviation="2"/>
<feComposite in2="hardAlpha" operator="out"/>
<feColorMatrix type="matrix" values="0 0 0 0 0 0 0 0 0 0 0 0 0 0 0 0 0 0 0.25 0"/>
<feBlend mode="normal" in2="BackgroundImageFix" result="effect1_dropShadow_1_486"/>
<feBlend mode="normal" in="SourceGraphic" in2="effect1_dropShadow_1_486" result="shape"/>
</filter>
<filter id="filter1_d_1_486" x="329.577" y="80.115" width="14.8341" height="13.5146" filterUnits="userSpaceOnUse" color-interpolation-filters="sRGB">
<feFlood flood-opacity="0" result="BackgroundImageFix"/>
<feColorMatrix in="SourceAlpha" type="matrix" values="0 0 0 0 0 0 0 0 0 0 0 0 0 0 0 0 0 0 127 0" result="hardAlpha"/>
<feOffset dy="4"/>
<feGaussianBlur stdDeviation="2"/>
<feComposite in2="hardAlpha" operator="out"/>
<feColorMatrix type="matrix" values="0 0 0 0 0 0 0 0 0 0 0 0 0 0 0 0 0 0 0.25 0"/>
<feBlend mode="normal" in2="BackgroundImageFix" result="effect1_dropShadow_1_486"/>
<feBlend mode="normal" in="SourceGraphic" in2="effect1_dropShadow_1_486" result="shape"/>
</filter>
<filter id="filter2_d_1_486" x="280.779" y="42.8096" width="14.8328" height="13.5153" filterUnits="userSpaceOnUse" color-interpolation-filters="sRGB">
<feFlood flood-opacity="0" result="BackgroundImageFix"/>
<feColorMatrix in="SourceAlpha" type="matrix" values="0 0 0 0 0 0 0 0 0 0 0 0 0 0 0 0 0 0 127 0" result="hardAlpha"/>
<feOffset dy="4"/>
<feGaussianBlur stdDeviation="2"/>
<feComposite in2="hardAlpha" operator="out"/>
<feColorMatrix type="matrix" values="0 0 0 0 0 0 0 0 0 0 0 0 0 0 0 0 0 0 0.25 0"/>
<feBlend mode="normal" in2="BackgroundImageFix" result="effect1_dropShadow_1_486"/>
<feBlend mode="normal" in="SourceGraphic" in2="effect1_dropShadow_1_486" result="shape"/>
</filter>
<filter id="filter3_d_1_486" x="302.335" y="59.1603" width="20.5175" height="18.1199" filterUnits="userSpaceOnUse" color-interpolation-filters="sRGB">
<feFlood flood-opacity="0" result="BackgroundImageFix"/>
<feColorMatrix in="SourceAlpha" type="matrix" values="0 0 0 0 0 0 0 0 0 0 0 0 0 0 0 0 0 0 127 0" result="hardAlpha"/>
<feOffset dy="4"/>
<feGaussianBlur stdDeviation="2"/>
<feComposite in2="hardAlpha" operator="out"/>
<feColorMatrix type="matrix" values="0 0 0 0 0 0 0 0 0 0 0 0 0 0 0 0 0 0 0.25 0"/>
<feBlend mode="normal" in2="BackgroundImageFix" result="effect1_dropShadow_1_486"/>
<feBlend mode="normal" in="SourceGraphic" in2="effect1_dropShadow_1_486" result="shape"/>
</filter>
<filter id="filter4_d_1_486" x="67.5486" y="43.1652" width="62.6285" height="50.1102" filterUnits="userSpaceOnUse" color-interpolation-filters="sRGB">
<feFlood flood-opacity="0" result="BackgroundImageFix"/>
<feColorMatrix in="SourceAlpha" type="matrix" values="0 0 0 0 0 0 0 0 0 0 0 0 0 0 0 0 0 0 127 0" result="hardAlpha"/>
<feOffset dy="4"/>
<feGaussianBlur stdDeviation="2"/>
<feComposite in2="hardAlpha" operator="out"/>
<feColorMatrix type="matrix" values="0 0 0 0 0 0 0 0 0 0 0 0 0 0 0 0 0 0 0.25 0"/>
<feBlend mode="normal" in2="BackgroundImageFix" result="effect1_dropShadow_1_486"/>
<feBlend mode="normal" in="SourceGraphic" in2="effect1_dropShadow_1_486" result="shape"/>
</filter>
<filter id="filter5_d_1_486" x="67.0463" y="80.115" width="14.8341" height="13.5146" filterUnits="userSpaceOnUse" color-interpolation-filters="sRGB">
<feFlood flood-opacity="0" result="BackgroundImageFix"/>
<feColorMatrix in="SourceAlpha" type="matrix" values="0 0 0 0 0 0 0 0 0 0 0 0 0 0 0 0 0 0 127 0" result="hardAlpha"/>
<feOffset dy="4"/>
<feGaussianBlur stdDeviation="2"/>
<feComposite in2="hardAlpha" operator="out"/>
<feColorMatrix type="matrix" values="0 0 0 0 0 0 0 0 0 0 0 0 0 0 0 0 0 0 0.25 0"/>
<feBlend mode="normal" in2="BackgroundImageFix" result="effect1_dropShadow_1_486"/>
<feBlend mode="normal" in="SourceGraphic" in2="effect1_dropShadow_1_486" result="shape"/>
</filter>
<filter id="filter6_d_1_486" x="115.845" y="42.8096" width="14.8335" height="13.5153" filterUnits="userSpaceOnUse" color-interpolation-filters="sRGB">
<feFlood flood-opacity="0" result="BackgroundImageFix"/>
<feColorMatrix in="SourceAlpha" type="matrix" values="0 0 0 0 0 0 0 0 0 0 0 0 0 0 0 0 0 0 127 0" result="hardAlpha"/>
<feOffset dy="4"/>
<feGaussianBlur stdDeviation="2"/>
<feComposite in2="hardAlpha" operator="out"/>
<feColorMatrix type="matrix" values="0 0 0 0 0 0 0 0 0 0 0 0 0 0 0 0 0 0 0.25 0"/>
<feBlend mode="normal" in2="BackgroundImageFix" result="effect1_dropShadow_1_486"/>
<feBlend mode="normal" in="SourceGraphic" in2="effect1_dropShadow_1_486" result="shape"/>
</filter>
<filter id="filter7_d_1_486" x="88.604" y="59.1603" width="20.5176" height="18.1199" filterUnits="userSpaceOnUse" color-interpolation-filters="sRGB">
<feFlood flood-opacity="0" result="BackgroundImageFix"/>
<feColorMatrix in="SourceAlpha" type="matrix" values="0 0 0 0 0 0 0 0 0 0 0 0 0 0 0 0 0 0 127 0" result="hardAlpha"/>
<feOffset dy="4"/>
<feGaussianBlur stdDeviation="2"/>
<feComposite in2="hardAlpha" operator="out"/>
<feColorMatrix type="matrix" values="0 0 0 0 0 0 0 0 0 0 0 0 0 0 0 0 0 0 0.25 0"/>
<feBlend mode="normal" in2="BackgroundImageFix" result="effect1_dropShadow_1_486"/>
<feBlend mode="normal" in="SourceGraphic" in2="effect1_dropShadow_1_486" result="shape"/>
</filter>
<filter id="filter8_d_1_486" x="131.643" y="239.154" width="33.9113" height="31.9749" filterUnits="userSpaceOnUse" color-interpolation-filters="sRGB">
<feFlood flood-opacity="0" result="BackgroundImageFix"/>
<feColorMatrix in="SourceAlpha" type="matrix" values="0 0 0 0 0 0 0 0 0 0 0 0 0 0 0 0 0 0 127 0" result="hardAlpha"/>
<feOffset dy="4"/>
<feGaussianBlur stdDeviation="2"/>
<feComposite in2="hardAlpha" operator="out"/>
<feColorMatrix type="matrix" values="0 0 0 0 0 0 0 0 0 0 0 0 0 0 0 0 0 0 0.25 0"/>
<feBlend mode="normal" in2="BackgroundImageFix" result="effect1_dropShadow_1_486"/>
<feBlend mode="normal" in="SourceGraphic" in2="effect1_dropShadow_1_486" result="shape"/>
</filter>
<clipPath id="clip0_1_486">
<rect width="409.586" height="346.767" fill="white" transform="translate(0.366089 0.864014)"/>
</clipPath>
</defs>
</svg>
